<svg width="160" height="100" viewBox="0 0 160 100" fill="none" xmlns="http://www.w3.org/2000/svg">
<g clip-path="url(#clip0_1571_12279)">
<path d="M23.3375 60.1274V39H28.1498V60.1274H23.3375ZM116.885 52.234C116.885 47.1282 112.924 43.9591 108.287 43.9591C103.622 43.9591 99.6896 47.1575 99.6896 52.234C99.6896 57.3398 103.651 60.5382 108.287 60.5382C112.924 60.5382 116.885 57.3104 116.885 52.234ZM112.131 52.234C112.131 54.9042 110.341 56.4008 108.258 56.4008C106.175 56.4008 104.385 54.9042 104.385 52.234C104.385 49.5344 106.175 48.0965 108.258 48.0965C110.341 48.0965 112.131 49.5344 112.131 52.234ZM21.4008 54.0533C21.4008 51.6764 20.1683 49.8571 17.9676 49.0355C20.051 47.8911 20.7846 46.3946 20.7846 44.634C20.7846 41.5529 18.5544 39 13.566 39.0293H4V60.1568H13.9768C18.9946 60.1274 21.4008 57.6332 21.4008 54.0533ZM15.6788 45.2502C15.6788 46.688 14.7691 47.5097 13.0085 47.5097H9.01776V43.1081H13.0085C14.6224 43.1081 15.6788 43.8124 15.6788 45.2502ZM16.1189 53.7305C16.1189 55.1097 15.1506 56.0193 13.3606 56.0193H9.01776V51.4417H13.3606C15.0919 51.4417 16.1189 52.322 16.1189 53.7305ZM63.3035 48.2726C61.983 45.5143 59.5181 43.9884 55.7915 43.9884C51.39 43.9884 47.4579 46.7467 47.4579 52.234C47.4579 57.5745 50.9205 60.5382 55.7328 60.5382C59.1073 60.5382 61.9537 59.1884 63.3035 56.2834L59.4301 54.288C58.7259 55.5792 57.6402 56.4008 55.9089 56.4008C53.6788 56.4008 52.2409 54.8162 52.2409 52.234C52.2409 49.6517 53.8842 48.0965 55.8795 48.0965C57.4347 48.0965 58.6085 48.8008 59.3421 50.3266L63.3035 48.2726ZM134.227 48.2726C132.907 45.5143 130.442 43.9884 126.715 43.9884C122.314 43.9884 118.381 46.7467 118.381 52.234C118.381 57.5745 121.844 60.5382 126.656 60.5382C130.031 60.5382 132.877 59.1884 134.227 56.2834L130.354 54.288C129.649 55.5792 128.564 56.4008 126.832 56.4008C124.602 56.4008 123.164 54.8162 123.164 52.234C123.164 49.6517 124.808 48.0965 126.803 48.0965C128.358 48.0965 129.532 48.8008 130.266 50.3266L134.227 48.2726ZM93.8795 60.1274L89.8595 53.0263H86.7784V60.1274H81.8193V39H90.7691C95.6108 39 98.9853 41.3181 98.9853 45.8664C98.9853 48.7714 97.5475 50.8255 94.9946 52.0873L99.6309 60.1274H93.8795ZM86.8077 48.8301H90.505C92.7938 48.8301 93.9089 47.539 93.9089 46.0131C93.9089 44.1938 92.8525 43.1961 90.505 43.1961H86.8077V48.8301ZM46.6656 59.8633V56.5475C46.4602 56.6062 46.1668 56.6649 45.844 56.6649C45.2278 56.6649 44.905 56.3421 44.905 55.7846V50.2973C44.905 46.1892 42.1467 44.0178 37.5985 44.0178C34.6348 44.0178 32.1112 45.1035 30.5266 46.512L33.1969 49.505C34.2533 48.566 35.6618 47.9792 37.0409 47.9792C39.1537 47.9792 40.1514 49.0355 40.1514 50.7668V51.2656C39.1537 51.0309 37.8919 50.7961 36.366 50.7961C32.522 50.7961 30.0278 52.6448 30.0278 55.6965C30.0278 58.8363 32.1112 60.4795 35.339 60.4795C37.5398 60.4795 39.5058 59.5699 40.5328 58.3961C41.149 59.9514 42.4988 60.3622 43.8193 60.3622C44.729 60.3915 45.7853 60.2448 46.6656 59.8633ZM40.1807 54.9042C40.1807 56.3421 38.8015 57.2811 37.217 57.2811C35.7205 57.2811 34.9869 56.5181 34.9869 55.4618C34.9869 54.3467 35.8085 53.5251 37.4811 53.5251C38.5081 53.5251 39.4178 53.7012 40.1807 53.8772V54.9042ZM151.422 60.1274L145.759 50.2973L151.07 44.5166H145.73L140.125 50.7375V39.0293H135.342V60.1568H140.125V56.3421L142.414 53.9066L145.994 60.1568H151.422V60.1274ZM80.5575 60.1274L74.8942 50.2973L80.2054 44.5166H74.8062L69.2602 50.7375V39.0293H64.4772V60.1568H69.2602V56.3421L71.549 53.9066L75.129 60.1568H80.5575V60.1274ZM154.357 57.1931C155.354 57.1931 155.941 57.8093 155.941 58.7483C155.941 59.6873 155.354 60.3035 154.357 60.3035C153.359 60.3035 152.772 59.6873 152.772 58.7483C152.772 57.8093 153.359 57.1931 154.357 57.1931ZM154.357 60.0981C155.149 60.0981 155.677 59.6286 155.677 58.7483C155.677 57.868 155.12 57.3985 154.357 57.3985C153.564 57.3985 153.036 57.868 153.036 58.7483C153.007 59.6579 153.564 60.0981 154.357 60.0981ZM153.741 57.956H154.386C154.768 57.956 154.973 58.1614 154.973 58.4548C154.973 58.7189 154.856 58.8656 154.65 58.9537L154.944 59.5112H154.65L154.386 59.0124H154.034V59.5112H153.741V57.956ZM154.034 58.1907V58.7483H154.357C154.562 58.7483 154.68 58.6896 154.68 58.4842C154.68 58.3081 154.591 58.2201 154.386 58.2201H154.034V58.1907Z" fill="#535862"/>
</g>
<defs>
<clipPath id="clip0_1571_12279">
<rect width="152" height="22" fill="white" transform="translate(4 39)"/>
</clipPath>
</defs>
</svg>
