<svg xmlns="http://www.w3.org/2000/svg" width="173" height="30" viewBox="0 0 173 30" fill="none">
  <g clip-path="url(#clip0_254_344)">
    <path d="M5.8799 4.59513L13.8409 0L21.8019 4.59513L18.875 6.29269L13.8409 3.39512L8.80674 6.29269L5.8799 4.59513ZM21.8019 10.3902L18.875 8.69269L13.8409 11.5903L8.80674 8.69269L5.8799 10.3902V13.7854L10.914 16.6829V22.478L13.8409 24.1756L16.7677 22.478V16.6829L21.8019 13.7854V10.3902ZM21.8019 19.5805V16.1854L18.875 17.8829V21.278L21.8019 19.5805ZM23.8799 20.7805L18.8458 23.678V27.0731L26.8067 22.478V13.2878L23.8799 14.9854V20.7805ZM20.9531 7.49269L23.8799 9.19024V12.5854L26.8067 10.8878V7.49269L23.8799 5.79513L20.9531 7.49269ZM10.914 24.9074V28.3025L13.8409 30L16.7677 28.3025V24.9074L13.8409 26.6049L10.914 24.9074ZM5.8799 19.5805L8.80674 21.278V17.8829L5.8799 16.1854V19.5805ZM10.914 7.49269L13.8409 9.19024L16.7677 7.49269L13.8409 5.79513L10.914 7.49269ZM3.80183 9.19024L6.72866 7.49269L3.80183 5.79513L0.875 7.49269V10.8878L3.80183 12.5854V9.19024ZM3.80183 14.9854L0.875 13.2878V22.478L8.83596 27.0731V23.678L3.80183 20.7805V14.9854Z" fill="#FFE360"/>
    <path d="M49.8812 18.8273V18.7796C49.8812 16.5376 48.6886 15.4166 46.7567 14.6772C47.9492 14.0095 48.9509 12.96 48.9509 11.0757V11.028C48.9509 8.40437 46.8521 6.71094 43.4413 6.71094H35.6897V23.4069H43.6322C47.4007 23.4069 49.8812 21.8803 49.8812 18.8273ZM45.3017 11.6958C45.3017 12.9361 44.2762 13.4608 42.6543 13.4608H39.2674V9.93085H42.8928C44.4431 9.93085 45.3017 10.551 45.3017 11.6481V11.6958ZM46.2319 18.3742C46.2319 19.6145 45.2541 20.1869 43.6322 20.1869H39.2674V16.5139H43.5129C45.3972 16.5139 46.2319 17.2055 46.2319 18.3265V18.3742Z" fill="#FFE360"/>
    <path d="M67.9766 23.4069V6.71094H64.3511V16.9908L56.528 6.71094H53.1411V23.4069H56.7665V12.793L64.852 23.4069H67.9766Z" fill="#FFE360"/>
    <path d="M86.4146 18.8273V18.7796C86.4146 16.5376 85.222 15.4166 83.2901 14.6772C84.4826 14.0095 85.4844 12.96 85.4844 11.0757V11.028C85.4844 8.40437 83.3855 6.71094 79.9748 6.71094H72.2231V23.4069H80.1656C83.9341 23.4069 86.4146 21.8803 86.4146 18.8273ZM81.8353 11.6958C81.8353 12.9361 80.8096 13.4608 79.1878 13.4608H75.8009V9.93085H79.4263C80.9765 9.93085 81.8353 10.551 81.8353 11.6481V11.6958ZM82.7654 18.3742C82.7654 19.6145 81.7875 20.1869 80.1656 20.1869H75.8009V16.5139H80.0464C81.9306 16.5139 82.7654 17.2055 82.7654 18.3265V18.3742Z" fill="#FFE360"/>
    <path d="M108.552 20.4572L106.667 18.5492C105.236 19.8848 103.925 20.7195 101.873 20.7195C98.6772 20.7195 96.3637 18.0483 96.3637 14.7568C96.3637 11.4653 98.6772 8.84167 101.873 8.84167C103.781 8.84167 105.212 9.67647 106.548 10.9167L108.432 8.74627C106.834 7.2198 104.974 6.14648 101.897 6.14648C96.8407 6.14648 93.2869 10.0342 93.2869 14.8045C93.2869 19.6224 96.9124 23.4148 101.778 23.4148C104.902 23.4148 106.811 22.2699 108.552 20.4572Z" fill="#FFE360"/>
    <path d="M122.774 16.0923V23.1285H125.707V6.43262H122.774V13.3733H114.807V6.43262H111.874V23.1285H114.807V16.0923H122.774Z" fill="#FFE360"/>
    <path d="M138.867 6.31348H136.149L128.802 23.1286H131.807L133.525 19.0977H141.42L143.114 23.1286H146.214L138.867 6.31348ZM140.346 16.498H134.599L137.46 9.81961L140.346 16.498Z" fill="#FFE360"/>
    <path d="M149.482 6.43262V23.1285H152.416V6.43262H149.482Z" fill="#FFE360"/>
    <path d="M168.788 17.9766L159.843 6.43262H157.124V23.1285H160.01V11.2506L169.216 23.1285H171.674V6.43262H168.788V17.9766Z" fill="#FFE360"/>
  </g>
  <defs>
    <clipPath id="clip0_254_344">
      <rect width="171.25" height="30" fill="white" transform="translate(0.875)"/>
    </clipPath>
  </defs>
</svg>
