<svg xmlns="http://www.w3.org/2000/svg" width="150" height="27" viewBox="0 0 150 27" fill="none"><path d="M57.971 22.1766C53.9104 22.1766 49.541 19.51 49.541 13.6547C49.541 7.79942 53.9113 5.13281 57.971 5.13281C59.3802 5.13281 60.8464 5.59777 62.5867 6.59641C62.692 6.6571 62.991 6.85879 62.991 6.85879L61.24 9.32013C61.24 9.32013 59.5051 8.19834 57.9942 8.19834C56.3762 8.19834 55.0197 8.78556 54.071 9.89754C53.2259 10.8873 52.7609 12.2215 52.7609 13.6547C52.7609 16.2829 54.3986 19.1111 57.9942 19.1111C59.182 19.1111 60.0977 18.7639 60.8357 18.2356C60.9892 18.1258 61.2382 17.9634 61.2382 17.9634L62.9963 20.4265C62.9963 20.4265 62.7197 20.6336 62.6197 20.7059C61.2578 21.6902 59.9049 22.1766 57.9719 22.1766H57.971Z" fill="#fc5603"></path><path d="M68.9163 17.1914H65.832V21.8348H68.9163V17.1914Z" fill="#fc5603"></path><path d="M76.2227 5.47656V12.202H68.9163V5.47656H65.832V15.1078H67.5544H68.9163H76.2227V21.8332H79.307V5.47656H76.2227Z" fill="#fc5603"></path><path d="M97.2131 21.8321L89.315 5.24609L81.416 21.8321H84.6788L89.315 12.075L91.4087 16.672H88.8536L87.4266 19.5903H92.8464L93.9503 21.8321H97.2131Z" fill="#fc5603"></path><path d="M102.53 5.47656H99.4453V21.8332H102.53V5.47656Z" fill="#fc5603"></path><path d="M143.636 5.47656H138.18V8.40465H143.636C145.304 8.40465 146.063 9.66478 146.063 10.8357C146.063 11.4729 145.848 12.0645 145.458 12.5027C145.02 12.9945 144.389 13.2551 143.636 13.2551H140.52V13.247H138.18V21.868H141.268V16.1751H143.608V16.1814C143.907 16.1796 144.137 16.1742 144.314 16.1599C147.691 15.8681 149.23 13.1988 149.23 10.8419C149.23 8.25829 147.48 5.47745 143.636 5.47745V5.47656Z" fill="#fc5603"></path><path d="M134.804 5.47656H132.188V5.92278C132.188 5.93081 132.185 5.93706 132.185 5.94509V14.9935C132.185 17.4379 130.341 18.5508 128.628 18.5508C126.914 18.5508 125.07 17.4379 125.07 14.9935V5.94509C125.07 5.93706 125.067 5.93081 125.067 5.92278V5.47656H121.982V14.9935C121.982 18.3759 124.265 21.7993 128.628 21.7993C131.83 21.7993 135.274 19.6699 135.274 14.9935V5.47656H134.805H134.804Z" fill="#fc5603"></path><path d="M115.983 5.47656V14.608L105.666 5.47656V9.92805L119.072 21.7993V18.2375V17.3415V5.47656H115.983Z" fill="#fc5603"></path><path d="M105.666 21.834H108.755V15.5896L105.666 12.8516V21.834Z" fill="#fc5603"></path><path d="M11.2541 6.22215L6.03516 3.26997L10.6428 0.632812L15.8582 3.58232L11.2541 6.22215Z" fill="#fc5603"></path><path d="M31.1827 15.7696L11.7784 26.8573L0.103516 20.1176V6.63821L3.69558 4.58203L8.41122 7.27184L4.79149 9.34676V17.4108L11.7784 21.4438L26.4938 13.0638L31.1827 15.7696Z" fill="#fc5603"></path><path d="M31.4292 21.5898L36.1859 24.2502L31.5791 26.8865L26.8242 24.2288L31.4292 21.5898Z" fill="#fc5603"></path><path d="M11.8105 11.4126L30.4429 0.632812L42.1169 7.37251V20.8528L38.5257 22.9081L33.8092 20.2183L37.4289 18.1433V10.0793L30.4429 6.04634L16.4985 14.1193L11.8105 11.4126Z" fill="#fc5603"></path></svg>
