<svg width="100" height="60" viewBox="0 0 100 60" fill="none" xmlns="http://www.w3.org/2000/svg">
<mask id="mask0_2929_19562" style="mask-type:luminance" maskUnits="userSpaceOnUse" x="0" y="0" width="100" height="60">
<path d="M100 0.5H0V59.5H100V0.5Z" fill="white"/>
</mask>
<g mask="url(#mask0_2929_19562)">
<path fill-rule="evenodd" clip-rule="evenodd" d="M56.5993 34.7136L56.74 34.7946L60.3445 36.88L60.7472 37.1025L60.3445 37.3253L51.0014 42.7914L50.9408 42.8318H50.8603H49.0682H48.9877L48.9272 42.7914L32.2543 33.1548L32.1937 33.1143L32.1535 33.0537L31.2474 31.4948L31.2072 31.434V31.353V12.0193V11.9383L31.2272 11.8776L32.1335 10.3187L32.1737 10.258L32.234 10.2175L48.9272 0.54049L48.9674 0.5H49.0479H50.84H50.9006L50.9408 0.520245L60.5458 5.78389L60.989 6.02682L60.5458 6.24951L56.74 8.29424L56.6193 8.35496L56.4985 8.29424L49.934 4.71091L35.3151 13.1935V30.1384L49.934 38.6008L56.4582 34.7946L56.5993 34.7136ZM56.6193 18.0725L56.4785 17.9915L49.9543 14.3677L45.7256 16.8173L59.3377 24.6723L59.4787 24.7532V24.9152V28.0329V28.1948L59.3377 28.2758L51.0214 33.1143L50.9611 33.1548H50.8803H49.0682H48.9877L48.9272 33.1143L39.9261 27.5067L39.5637 27.2839L39.9261 27.0611L43.1279 24.9962L43.269 24.9152L43.4098 24.9962L49.9945 28.9843L54.1827 26.5348L40.5706 18.6596L40.4295 18.5786V18.4166V15.2787V15.1167L40.5706 15.0357L48.9272 10.1972L48.9674 10.1568H49.0479H50.84H50.9208L50.9811 10.1972L59.8211 15.7241L60.2035 15.967L59.8211 16.1897L56.74 17.9915L56.6193 18.0725Z" fill="#535862"/>
<path fill-rule="evenodd" clip-rule="evenodd" d="M42.1221 59.1433C41.6076 58.911 41.205 58.5885 40.9142 58.1689C40.6234 57.749 40.4742 57.2616 40.4668 56.7068L42.07 56.6619C42.0997 57.1418 42.2787 57.5164 42.6068 57.7789C42.935 58.0488 43.3747 58.1837 43.9192 58.1837C44.4187 58.1837 44.8213 58.0789 45.1121 57.8765C45.4029 57.6739 45.5521 57.3815 45.5521 57.0143C45.5521 56.7293 45.4553 56.497 45.2687 56.3322C45.0824 56.1597 44.8437 56.0322 44.5529 55.9496C44.2621 55.8673 43.8521 55.7697 43.33 55.6724C42.6963 55.5448 42.1892 55.3951 41.8089 55.2226C41.4287 55.0501 41.1453 54.8178 40.944 54.5178C40.75 54.218 40.6532 53.8283 40.6532 53.3409C40.6532 52.8237 40.7947 52.3739 41.0782 51.9839C41.3616 51.5942 41.7418 51.2942 42.2266 51.0844C42.7113 50.8746 43.2482 50.7695 43.8371 50.7695C44.4487 50.7695 44.9929 50.8746 45.4703 51.0918C45.9474 51.3093 46.3276 51.6093 46.6034 51.999C46.8795 52.3887 47.0211 52.8462 47.0434 53.3634L45.4479 53.4534C45.4105 53.0184 45.2463 52.6811 44.9632 52.4414C44.6797 52.2014 44.3068 52.0816 43.8445 52.0816C43.3747 52.0816 43.0021 52.1789 42.7337 52.3739C42.4576 52.5686 42.3234 52.8462 42.3234 53.206C42.3234 53.4833 42.4055 53.7007 42.5695 53.8656C42.7337 54.023 42.9497 54.1431 43.2108 54.218C43.4718 54.2929 43.8371 54.3828 44.3145 54.4728L44.4634 54.5029C45.0897 54.6228 45.6045 54.7728 45.9921 54.9453C46.3797 55.1175 46.6855 55.3501 46.8945 55.6425C47.1032 55.9348 47.2076 56.3245 47.2076 56.7968C47.2076 57.3365 47.0658 57.809 46.775 58.2138C46.4842 58.6186 46.089 58.9335 45.5895 59.1507C45.0897 59.3682 44.5232 59.4806 43.8968 59.4806C43.2258 59.4883 42.6366 59.3759 42.1221 59.1433ZM1.92379 58.9483C1.3049 58.5885 0.827679 58.0789 0.49959 57.4191C0.171501 56.7595 0 56.0023 0 55.14C0 54.2704 0.171501 53.5058 0.507047 52.8462C0.842592 52.1863 1.31981 51.6842 1.93871 51.3243C2.5576 50.9645 3.28089 50.7846 4.10858 50.7846C4.75729 50.7846 5.33145 50.9119 5.84595 51.1593C6.36045 51.4066 6.77803 51.759 7.09866 52.2165C7.41929 52.6737 7.62061 53.2134 7.69518 53.8206L6.04729 53.9106C5.92797 53.3483 5.68937 52.9136 5.33145 52.6062C4.97353 52.2988 4.53361 52.1413 4.00418 52.1413C3.5195 52.1413 3.10192 52.2689 2.75147 52.5237C2.40101 52.7787 2.13258 53.1311 1.94616 53.5809C1.75975 54.0307 1.67027 54.5553 1.67027 55.14C1.67027 55.7247 1.75975 56.2422 1.94616 56.6994C2.13258 57.1492 2.40101 57.5016 2.75147 57.7564C3.10192 58.0038 3.5195 58.1313 4.00418 58.1313C4.53361 58.1313 4.97353 57.9813 5.324 57.6739C5.67445 57.3667 5.91305 56.9317 6.03237 56.3621L7.68026 56.4446C7.59824 57.0667 7.39692 57.6064 7.07629 58.0638C6.75566 58.521 6.33808 58.8808 5.82358 59.1208C5.30908 59.3682 4.73492 59.4883 4.09366 59.4883C3.27342 59.4883 2.54269 59.3084 1.92379 58.9483ZM8.80624 50.8444H10.4392V54.3754H14.0631V50.8444H15.7036V59.4208H14.0631V55.7848H10.4392V59.4208H8.80624V50.8444ZM18.9024 57.3966H22.6009L23.2794 59.4208H25.0466L21.9298 50.8521H19.663L16.5387 59.4208H18.2462L18.9024 57.3966ZM22.1684 56.0846H19.3424L20.6547 52.1189H20.8411L22.1684 56.0846ZM28.7897 52.2538V58.0114H30.3258V59.4132H25.6133V58.0114H27.1492V52.2538H25.6133V50.8521H30.3258V52.2538H28.7897ZM33.4576 50.8521H31.5711V59.4208H33.1818V53.3258H33.3532L37.4021 59.4208H39.2961V50.8521H37.6782V56.9394H37.4992L33.4576 50.8521ZM53.9632 50.8521H48.3411V59.4132H54.1047V58.0114H49.9739V55.7472H53.2324V54.4355H49.9739V52.2538H53.9632V50.8521ZM56.6847 58.9483C56.0661 58.5885 55.5887 58.0789 55.2605 57.4191C54.9326 56.7595 54.7611 56.0023 54.7611 55.14C54.7611 54.2704 54.9326 53.5058 55.2682 52.8462C55.6037 52.1863 56.0808 51.6842 56.6997 51.3243C57.3187 50.9645 58.0418 50.7846 58.8695 50.7846C59.5184 50.7846 60.0924 50.9119 60.6068 51.1593C61.1216 51.4066 61.5389 51.759 61.8597 52.2165C62.1803 52.6737 62.3816 53.2134 62.4563 53.8206L60.8084 53.9106C60.6889 53.3483 60.4503 52.9136 60.0924 52.6062C59.7345 52.2988 59.2947 52.1413 58.7653 52.1413C58.2805 52.1413 57.8629 52.2689 57.5124 52.5237C57.1621 52.7787 56.8937 53.1311 56.7071 53.5809C56.5208 54.0307 56.4313 54.5553 56.4313 55.14C56.4313 55.7247 56.5208 56.2422 56.7071 56.6994C56.8937 57.1492 57.1621 57.5016 57.5124 57.7564C57.8629 58.0038 58.2805 58.1313 58.7653 58.1313C59.2947 58.1313 59.7345 57.9813 60.085 57.6739C60.4355 57.3667 60.6742 56.9317 60.7934 56.3621L62.4413 56.4446C62.3592 57.0667 62.1579 57.6064 61.8374 58.0638C61.5166 58.521 61.0992 58.8808 60.5845 59.1208C60.07 59.3682 59.4961 59.4883 58.8547 59.4883C58.0345 59.4883 57.3037 59.3084 56.6847 58.9483ZM63.5003 55.7922C63.5003 57.0069 63.7911 57.9215 64.3726 58.5512C64.9542 59.1809 65.8116 59.4883 66.9526 59.4957C68.0861 59.4957 68.9434 59.1809 69.525 58.5512C70.1066 57.9215 70.3974 57.0069 70.3974 55.7922V50.8521H68.7495V55.8822C68.7495 56.632 68.6079 57.1868 68.3171 57.5466C68.0263 57.9138 67.5713 58.0937 66.945 58.0937C66.3187 58.0937 65.8639 57.9064 65.5805 57.5466C65.2897 57.1868 65.1482 56.632 65.1482 55.8822V50.8521H63.5003V55.7922ZM75.6245 56.4071H73.4771V59.4208H71.8439V50.8521H75.4455C76.0495 50.8521 76.5789 50.9645 77.0413 51.1968C77.5037 51.4291 77.8616 51.7516 78.115 52.1638C78.3684 52.5837 78.4953 53.0711 78.4953 53.6259C78.4953 54.0307 78.4058 54.3979 78.2342 54.7278C78.0629 55.0577 77.8018 55.3276 77.4663 55.5374C77.1308 55.7472 76.7282 55.8822 76.2508 55.9422V56.1298H77.2797L78.9576 59.4132H77.1532L75.6245 56.4071ZM75.3039 55.0501C75.7661 55.0501 76.1389 54.9228 76.4074 54.6678C76.6834 54.413 76.8176 54.068 76.8176 53.6259C76.8176 53.3335 76.7579 53.0785 76.6311 52.8687C76.5045 52.6586 76.3329 52.4864 76.1018 52.3739C75.8705 52.2615 75.6095 52.2014 75.3039 52.2014H73.4695V55.0501H75.3039ZM82.7232 58.0114V52.2538H84.2592V50.8521H79.5466V52.2538H81.0826V58.0114H79.5466V59.4132H84.2592V58.0114H82.7232ZM87.5253 52.2538H84.99V50.8521H91.7084V52.2538H89.1805V59.4132H87.5326V52.2538H87.5253ZM96.8758 59.4208V56.6169L100 50.8444H98.1732L96.13 54.8477H95.9511L94.0347 50.8444H92.1111L95.2353 56.6394V59.4208H96.8758Z" fill="#535862"/>
</g>
</svg>
