<svg width="160" height="100" viewBox="0 0 160 100" fill="none" xmlns="http://www.w3.org/2000/svg">
<path fill-rule="evenodd" clip-rule="evenodd" d="M25.215 47.6149H31.0134C37.7047 47.6149 40.4359 44.5444 40.4359 38.7954C40.4359 32.9969 37.148 30 31.0134 30H25.215V47.6149ZM28.6919 32.6797H30.5932C34.6689 32.6797 36.8854 34.5558 36.8854 38.8195C36.8854 42.6935 35.3412 45.0318 30.5512 44.9341H28.6919V32.6797ZM48.4511 37.0895C46.6338 37.0895 45.846 38.5758 45.7515 40.1841H51.0142C51.0877 38.4046 50.2159 37.0895 48.4511 37.0895ZM42.3165 41.4015C42.3165 38.308 43.9237 35.019 48.5562 35.019C53.1781 35.019 54.7643 38.5758 54.5017 42.2303L45.6254 42.2545C45.6569 44.2524 46.3607 45.8848 48.5772 45.8848C49.8902 45.8848 51.0142 44.9835 51.0142 43.5949H54.2285C54.0395 47.0298 51.2558 47.9804 48.115 47.9552C44.1653 47.8334 42.3165 45.0812 42.3165 41.4015ZM68.7543 47.6144H65.4349L65.4139 45.6164C64.8572 47.1994 63.313 48.0041 61.4222 48.0041C59.1743 48.0041 57.0524 46.6396 57.0314 43.3748V35.4565H60.3928V42.9115C60.3718 44.6658 61.0546 45.6406 62.7038 45.6647C64.1954 45.6647 65.4139 44.8118 65.4139 42.4493V35.4565H68.7543V47.6144ZM73.0622 33.5813V35.5068H70.4572V37.8692H73.0622V44.0826C73.0622 45.7875 73.3564 46.86 74.5013 47.4682C75.8341 48.1771 77.4116 47.9401 78.8529 47.7236L78.853 47.7236L78.8532 47.7235L78.8533 47.7235L78.8535 47.7235L78.8537 47.7235C79.0479 47.6943 79.2396 47.6655 79.4279 47.6394V45.5438C78.929 45.6831 78.5569 45.676 78.1847 45.6688L78.1846 45.6688C78.1023 45.6672 78.02 45.6656 77.9363 45.6656C76.7178 45.6173 76.3081 44.9345 76.3081 43.7412V37.8692H79.4069V35.5068H76.3081V31.8765L73.0622 33.5813ZM92.0216 42.3761C92.5573 43.4486 92.5363 44.8615 91.8745 45.8363C90.7296 47.5895 88.24 48.0285 86.3177 47.9802C83.5865 47.809 81.16 47.1031 81.2756 43.8383H84.595C84.5635 45.2512 85.4458 45.7627 86.7064 45.8111C87.9249 45.8111 89.1434 45.3972 89.1434 44.2764C89.1434 43.3751 88.2925 42.9854 87.2001 42.7417C86.9772 42.6939 86.7656 42.6508 86.5606 42.609L86.5604 42.6089L86.5599 42.6089L86.5591 42.6087L86.5589 42.6086C85.6147 42.4162 84.8074 42.2517 83.6601 41.791C82.5466 41.2553 81.4436 40.354 81.4436 38.6491C81.4436 37.2352 82.5466 36.1638 83.9857 35.5787C84.9521 35.1648 86.1496 35.043 87.1791 35.043C89.49 35.043 92.0006 35.8466 91.8535 38.7699H88.7337C88.7337 38.3319 88.6392 37.8445 88.2715 37.5525C87.5887 36.9432 85.4878 36.8697 84.8366 37.8687C84.2336 39.2675 85.6508 39.6013 87.5647 40.052C87.9849 40.1509 88.4289 40.2555 88.8808 40.3782C90.4669 40.7437 91.5384 41.4013 92.0216 42.3761ZM105.74 39.5505C105.74 36.2122 102.988 34.9937 100.33 34.9937C96.3806 34.9937 94.1642 37.5284 94.1642 41.4013C94.1642 45.2271 95.992 47.809 99.9626 47.9551C102.935 48.0044 105.782 46.6882 105.74 43.205L102.547 43.2291C102.515 44.3247 102.127 45.5926 100.834 45.8111C100.057 45.9582 99.1538 45.8111 98.6496 45.3237C97.8933 44.7155 97.4731 43.0337 97.4731 41.3047C97.4731 39.6723 97.7882 38.0399 98.7966 37.4548C99.1538 37.2595 99.595 37.1134 100.015 37.0893C101.622 37.0157 102.473 37.9664 102.473 39.5253L105.74 39.5505ZM108.315 30.0239H111.676V37.3812C112.558 35.8224 113.871 35.1406 115.647 35.1406C117.895 35.1406 120.017 36.8213 120.017 39.2332V47.6146H116.697V40.1586C116.697 38.502 115.993 37.4064 114.407 37.4064C112.926 37.4064 111.655 38.3802 111.655 40.6218V47.6146H108.315V30.0239ZM128.756 37.0895C126.928 37.0895 126.151 38.5758 126.056 40.1841H131.319C131.392 38.4046 130.51 37.0895 128.756 37.0895ZM122.621 41.4015C122.621 38.308 124.228 35.019 128.861 35.019C133.483 35.019 135.069 38.5758 134.806 42.2303L125.93 42.2545C125.962 44.2524 126.665 45.8848 128.882 45.8848C130.195 45.8848 131.319 44.9835 131.319 43.5949H134.533C134.344 47.0298 131.56 47.9804 128.42 47.9552C124.47 47.8334 122.621 45.0812 122.621 41.4015ZM35.7126 69.0745C34.5781 69.439 33.1075 69.5861 31.5318 69.5861H25.1661V52.0195H31.9415C34.9668 52.0195 38.1286 52.9702 38.2547 56.3568C38.3282 58.5008 36.8681 59.8642 35.0403 60.4735C36.4479 60.839 37.5929 61.2529 38.3702 62.5691C39.053 63.7383 39.1055 65.2982 38.5488 66.5892C37.9605 67.8077 37.0571 68.6113 35.7126 69.0745ZM31.9415 54.6509H28.5065V59.2067H31.994C33.8218 59.2067 34.7672 58.4514 34.7672 56.965C34.7672 55.5763 33.6747 54.6509 31.9415 54.6509ZM32.2881 61.838L28.5065 61.8139V66.9789H32.1621C34.5991 66.9789 35.3764 65.7845 35.3764 64.2992C35.3764 63.1542 34.5466 61.8139 32.2881 61.838ZM44.3676 65.9564C44.3676 67.1255 45.1029 67.7348 46.3424 67.8325C49.2207 67.7831 49.3887 65.6885 49.3152 63.6664C49.1775 63.6664 49.0292 63.6646 48.8731 63.6627H48.873H48.8729C47.1239 63.6415 44.3869 63.6083 44.3676 65.9564ZM46.7311 57.0633C49.8299 57.0392 52.5085 58.2818 52.5085 60.7672V69.5867H49.6093L49.4833 67.8083C48.7269 69.3913 46.7836 70.1466 45.0714 69.9764C42.6869 69.9029 41.0587 68.4901 41.0587 66.1507C41.0587 64.324 42.0566 63.179 43.3487 62.5698C44.7766 61.9031 46.5986 61.8515 48.1862 61.8066C48.5724 61.7956 48.9448 61.7851 49.2942 61.7662C49.4623 59.7189 48.6534 58.8911 46.8572 58.8911C45.6597 58.9153 44.7563 59.597 44.8298 60.9132H41.5944C41.6365 58.0623 43.7794 57.1127 46.7311 57.0633ZM55.7423 57.4285H59.1037V59.3781C59.9861 57.794 61.5933 57.1123 63.4 57.1123C65.4169 57.1123 67.4863 58.2814 67.4863 61.2048V69.5863H64.1248V62.1303C64.1458 60.5472 63.3685 59.3781 61.8349 59.3781C60.3222 59.3781 59.0827 60.3519 59.0827 62.5935V69.5863H55.7423V57.4285ZM74.138 62.6175L79.2537 69.5861H83.571L77.9196 62.4956L82.7201 57.4283H78.7705L74.138 62.6175ZM74.0435 51.9954H70.7346V69.5861H74.0435V51.9954Z" fill="#535862"/>
</svg>
