<svg width="160" height="100" viewBox="0 0 160 100" fill="none" xmlns="http://www.w3.org/2000/svg">
<path fill-rule="evenodd" clip-rule="evenodd" d="M122.564 48.662H118.666V34.3187H122.338V35.9243C122.795 34.9595 123.941 34.1056 125.433 33.9965C127.958 33.8891 129.676 35.2817 129.676 38.2782V48.662H125.663V37.8504C125.663 36.5669 125.663 35.4947 124.745 35.2817C124.4 35.1743 123.827 35.2817 123.368 35.6021C122.795 36.1391 122.564 36.7799 122.564 37.8504V48.662ZM54.7659 41.4894C54.7659 44.1655 54.7659 46.3063 54.3069 47.3785C53.9622 47.912 53.6175 48.2341 52.8138 48.2341C52.1262 48.2341 51.6672 47.912 51.4386 47.3768C50.8652 46.3063 50.8652 44.1655 50.8652 41.4894C50.8652 38.9208 50.8652 36.6743 51.4368 35.6021C51.6672 35.0669 52.1262 34.7465 52.8138 34.7465C53.6175 34.7465 53.9622 35.0669 54.3069 35.6021C54.8802 36.6725 54.7659 38.919 54.7659 41.4894ZM56.2555 35.2817C55.3375 34.5317 54.1908 33.9965 52.8138 33.9965C51.4385 33.9965 50.4062 34.5334 49.3739 35.2817C47.7666 36.5669 46.7342 38.9208 46.7342 41.4894C46.7342 44.1655 47.7666 46.4137 49.3739 47.6989C50.4062 48.4472 51.4385 48.9824 52.8138 48.9824C54.1908 48.9824 55.3392 48.4472 56.2572 47.6989C57.9771 46.4137 58.8951 44.1655 58.8951 41.4894C58.8951 38.9208 57.9754 36.5669 56.2555 35.2817ZM96.2941 54.1215V57.9736H95.4921C95.0331 56.368 94.3438 54.9771 92.5078 54.8697C91.3611 54.7641 90.3288 55.4067 90.2145 56.368C90.1002 57.3327 90.4431 58.1867 92.5078 59.2605C95.1475 60.6497 97.2121 61.2923 97.2121 64.1831C97.2121 67.287 94.3438 68.787 91.9345 68.787H87.3445V63.4348H88.1482C88.7232 66.2166 89.6395 67.9296 91.8202 68.037C93.1972 68.037 94.2277 67.287 94.2277 65.8961C94.2277 64.5035 93.3115 63.6479 91.1325 62.4701C88.7232 61.0792 87.2319 60.2218 87.2319 58.2958C87.2319 55.7271 89.1822 54.1215 92.2791 54.1215H96.2941ZM101.341 48.662V38.2782C101.341 35.2817 99.6214 33.8891 97.0978 33.9965C95.3761 34.1039 94.3438 35.1743 93.8848 36.0299C93.3115 34.5317 92.0488 33.8891 90.2128 33.9965C88.7232 34.1039 87.5748 34.9595 87.1158 35.9243V34.3187H83.5599V48.6602H87.4605V37.8521C87.4605 36.7817 87.5748 36.1391 88.2642 35.6039C88.7232 35.2834 89.1822 35.176 89.5252 35.2834C90.4431 35.4965 90.4432 36.5686 90.4432 37.8521V48.6637H94.3438V37.743C94.3438 36.7782 94.5724 36.1356 95.1475 35.6004C95.6065 35.28 96.0655 35.1726 96.4084 35.28C97.3264 35.493 97.4407 36.5652 97.4407 37.8486V48.6602H101.341V48.662ZM61.5331 48.662H65.548V31.3204H61.5331V48.662ZM75.0693 35.4965C75.8729 36.5669 75.8729 39.1338 75.8729 41.169C75.8729 43.3099 75.989 46.0933 75.071 47.2694C74.7263 47.6989 74.3816 47.912 73.8083 47.912C73.0064 47.912 72.5474 47.0563 72.3187 45.6637C72.2027 44.3803 72.2027 42.7746 72.2027 41.0616C72.2027 38.1725 72.4313 34.9595 73.9244 34.9595C74.4959 34.9595 74.7246 35.1743 75.0693 35.4965ZM79.7753 48.662V31.3204H75.7586V35.3891C75.4157 34.6391 74.612 34.1039 73.4654 34.1039C70.597 34.1039 68.3038 36.8873 68.1877 41.169C68.0734 44.0598 69.1057 48.8767 73.1207 48.8767C74.7263 48.8767 75.6443 48.0194 75.989 47.2694V48.662H79.7753ZM110.979 40.0986L109.716 40.8468C108.455 41.5968 108.226 42.5616 108.11 43.6303C107.996 44.4877 107.996 45.2359 108.11 46.5211C108.225 47.6989 109.028 47.912 109.716 47.6989C110.52 47.3768 110.979 45.9859 110.979 44.4877V40.0986ZM113.272 34.7465C114.306 35.2834 114.994 36.1373 114.994 38.0651V48.662H111.207V47.0563C110.75 48.2341 109.487 48.9824 107.766 48.9824C106.39 48.9824 103.981 48.3415 103.981 45.0229C103.981 41.9173 106.16 41.2764 108.571 40.3116C110.75 39.456 110.979 39.3486 110.979 38.493V36.1373C110.979 35.1743 110.405 34.7465 109.257 34.7465C108.8 34.8539 107.996 35.0669 107.996 35.6021C107.88 36.2447 108.684 36.2447 108.8 37.2078C108.914 38.7077 107.651 39.2412 106.505 39.1356C105.701 39.1356 104.783 38.7077 104.669 37.5299C104.554 35.6021 106.848 33.9965 110.061 33.9965C111.552 33.9965 112.47 34.3187 113.272 34.7465ZM54.1908 60.1145L52.9299 60.8644C51.6672 61.6144 51.4386 62.5775 51.3225 63.6479C51.2099 64.5035 51.2099 65.3609 51.3225 66.537C51.3225 67.8222 52.1262 68.037 52.8138 67.7148C53.7318 67.3944 54.1908 66.1109 54.1908 64.5035V60.1145ZM56.4858 54.7623C57.5181 55.4049 58.0915 56.1549 58.0915 58.081V68.7852H54.4229V67.1796C53.9639 68.25 52.703 68.9983 50.9813 68.9983C49.49 68.9983 47.195 68.4648 47.195 65.1461C47.195 62.0423 49.3756 61.3997 51.6689 60.4349C53.9639 59.4736 54.1926 59.3662 54.1926 58.6162V56.2606C54.1926 55.1919 53.6192 54.7641 52.4726 54.8697C52.0136 54.8697 51.2116 55.0845 51.2116 55.6197C51.0956 56.3697 51.8993 56.3697 52.0136 57.3327C52.1279 58.7236 50.867 59.2588 49.7186 59.2588C48.9166 59.1514 47.9986 58.7236 47.8826 57.5458C47.7683 55.7271 50.0633 54.1197 53.2745 54.1197C54.7676 54.1197 55.6839 54.3345 56.4875 54.7641L56.4858 54.7623ZM84.2493 58.4032C84.2493 55.4067 82.5276 53.9067 80.0039 54.1215C78.743 54.2271 77.7089 54.7623 77.1356 55.5123V51.338H73.2333V61.1866C73.2333 64.824 70.4793 68.25 67.7253 68.1426C65.7767 68.1426 65.3177 66.7518 65.0873 65.2535C64.7444 63.1127 64.7444 60.6514 64.973 57.9736C65.2034 56.2623 65.6624 54.8697 67.0394 54.8697C68.0717 54.8697 68.186 55.5123 67.727 55.9402C67.268 56.4771 66.5803 57.0106 66.9233 58.1884C67.268 59.4736 69.4469 59.6866 70.481 58.7253C71.2829 57.868 71.1686 56.4754 70.5953 55.6197C69.9059 54.5493 68.7593 54.1215 67.0394 54.1215C64.8587 54.1215 60.7294 55.9402 60.7294 61.7201C60.7294 67.9296 64.973 69 67.3823 69C70.1363 69 72.5439 66.7518 73.2333 64.9314V68.7852H77.1339V57.9736C77.1339 56.9049 77.3625 56.2623 77.9376 55.7254C78.3966 55.4049 78.9699 55.2976 79.3146 55.4049C80.2326 55.6197 80.2326 56.6901 80.2326 57.9736V68.7852H84.2475L84.2493 58.4032ZM44.0963 31V37.1021H43.2926C42.605 34.1056 41.1136 31.8556 39.049 31.75C37.672 31.6426 36.8683 32.3909 36.1807 33.4613C35.4931 34.7465 35.1484 37.4225 35.1484 40.6321C35.1484 43.6303 35.2627 45.8785 35.6074 47.4842C35.836 48.2341 36.4093 49.4102 37.9007 49.4102C38.7043 49.4102 39.2776 49.1972 39.6223 48.7694C40.1939 48.1268 40.31 46.8416 40.31 45.9859V43.0951C40.31 42.0247 39.967 41.3838 39.392 41.0616C38.9347 40.8468 38.2453 40.8468 37.9024 40.7395V39.9912H44.3249V55.2993H43.523C43.1783 54.1215 42.9496 53.2641 42.3746 52.3011C41.803 51.338 40.769 50.2676 39.049 50.2676C37.213 50.1602 35.836 51.2306 35.836 52.8363C35.836 54.9771 37.213 55.5123 39.7366 56.7975C42.146 58.081 45.2446 59.1532 45.2446 62.8979C45.2446 66.537 41.9156 68.787 38.131 68.787H32.0514V61.3997H32.8534C33.8857 66.9665 36.4093 67.9296 38.131 67.9296C40.31 67.9296 41.3423 66.6444 41.3423 64.8257C41.228 62.4701 39.5063 61.6144 37.0987 60.4366C33.6571 58.6179 32.0514 57.7606 32.0514 54.7641C32.1657 52.1937 34.3447 50.5898 36.754 49.9472C31.7067 49.4102 30.2154 45.1303 30.3297 40.5264C30.3297 35.9243 33.1981 31 38.8187 31H44.0963Z" fill="#535862"/>
</svg>
