<svg width="160" height="100" viewBox="0 0 160 100" fill="none" xmlns="http://www.w3.org/2000/svg">
<path d="M109.331 29V49.9558L109.064 50.1766L108.797 50.3975L108.541 50.6293L108.295 50.8612L108.062 51.093L107.828 51.336L107.605 51.5788L107.382 51.8218V29H83.9545V48.0789H82.0161V29H58.5886V48.112H56.6502V29H33.2227V50.7839L27.2405 70.5362H32.4986L35.1388 61.7918H35.8963L40.2632 70.5362H46.613L42.3798 61.7918H51.9825L49.3201 70.5362H55.0572L57.6862 61.8139H58.9562V61.7917H60.7609H60.9057H71.745L69.205 70.5141H74.9979L77.4598 61.7917H80.0666L80.1334 70.5141H84.9904L90.5716 61.7917H94.2255L92.3317 70.5141H98.0354L99.8958 61.7917H103.193L103.171 62.2886L103.183 62.7965L103.205 63.2823L103.25 63.7681L103.283 63.9999L103.316 64.2318L103.361 64.4636L103.405 64.6955L103.461 64.9274L103.517 65.1482L103.584 65.369L103.65 65.5898L103.728 65.8107L103.806 66.0204L103.895 66.2302L103.985 66.429L104.085 66.6387L104.185 66.8375L104.297 67.0252L104.408 67.2239L104.531 67.4116L104.664 67.5883L104.798 67.776L104.943 67.9416L105.088 68.1182L105.233 68.2838L105.4 68.4495L105.567 68.604L105.778 68.7807L105.99 68.9573L106.213 69.123L106.447 69.2775L106.681 69.4321L106.915 69.5756L107.16 69.697L107.416 69.8295L107.661 69.9399L107.917 70.0503L108.174 70.1497L108.441 70.2491L108.708 70.3375L108.976 70.4148L109.243 70.492L109.51 70.5583L110.045 70.6797L110.591 70.7681L111.126 70.8453L111.66 70.9116L112.184 70.9557L112.696 70.9779L113.198 71H113.677L114.323 70.9895L114.969 70.979L115.626 70.9459L116.283 70.9128L116.941 70.8575L117.598 70.8023L118.255 70.736L118.913 70.6587L119.581 70.5703L120.249 70.4709L120.918 70.3605L121.586 70.2502L122.255 70.1288L122.923 69.9963L123.591 69.8638L124.271 69.7092L126.254 61.7928H132.76V29.001L109.331 29ZM35.395 60.9748L35.4284 60.8534L35.5064 60.9748H35.395ZM55.8036 49.2271L55.4694 50.3423L52.3501 60.6104L52.2276 60.9748H41.9787L41.1878 59.2965L52.2276 48.112H45.1314L36.4978 57.3312L39.294 48.112H34.0582V29.8281H55.8035L55.8036 49.2271ZM61.8526 57.9053L61.6855 57.9158L61.5295 57.9263L61.3624 57.9368H61.1842H60.9503H60.7497L60.5604 57.9473H60.3821L58.9896 57.9368L59.6357 55.574L59.9365 54.4036L60.6718 51.6544H60.9057H61.1508L61.3847 51.644H61.6075H62.6881L63.3454 51.6544L63.9469 51.6766L64.2143 51.6871L64.4705 51.7092L64.7156 51.7423L64.9384 51.7755L65.1389 51.8086L65.3283 51.8638L65.5065 51.9191L65.6625 51.9854L65.7962 52.0516L65.9187 52.14L66.0302 52.2284L66.1192 52.3388L66.1749 52.4272L66.2194 52.5156L66.2639 52.615L66.2973 52.7254L66.3196 52.8468L66.3314 52.9682V53.1007V53.2442L66.3196 53.3988L66.3091 53.5534L66.2757 53.73L66.2423 53.9067L66.142 54.2821L66.0195 54.7016L65.8969 55.0549L65.7632 55.3972L65.6184 55.7174L65.4624 56.0155L65.3844 56.148L65.3063 56.2805L65.2171 56.413L65.1168 56.5344L65.0165 56.6558L64.9162 56.7662L64.8048 56.8766L64.6933 56.976L64.5707 57.0643L64.4482 57.1637L64.3145 57.241L64.1697 57.3294L64.0248 57.4067L63.8689 57.4729L63.7129 57.5392L63.5458 57.5945L63.3676 57.6607L63.1782 57.7049L62.9777 57.749L62.7772 57.7931L62.5544 57.8262L62.3316 57.8594L62.0976 57.8815L61.8525 57.9036L61.8526 57.9053ZM77.6937 60.9748L79.9775 52.9148L80.0666 60.9748H77.6937ZM81.1694 48.0789H75.7331L71.9901 60.9748H66.2195L66.4869 60.8644L66.7542 60.754L67.0104 60.6436L67.2667 60.5222L67.5117 60.4008L67.7457 60.2572L67.9796 60.1247L68.2024 59.9812L68.4252 59.8266L68.6369 59.6721L68.8374 59.5175L69.0379 59.3408L69.2273 59.1752L69.4056 58.9875L69.5838 58.8109L69.7509 58.6121L69.918 58.4244L70.074 58.2146L70.2188 58.0159L70.3636 57.7951L70.4973 57.5743L70.6199 57.3535L70.7424 57.1216L70.8539 56.8787L70.9653 56.6358L71.0656 56.3929L71.1547 56.1389L71.2439 55.874L71.3106 55.609L71.3887 55.344L71.4443 55.0569L71.5 54.7809L71.578 54.3393L71.6448 53.9197L71.6894 53.5222L71.7228 53.1468L71.7345 52.7714L71.7228 52.4292L71.7123 52.0869L71.6678 51.7667L71.6232 51.4686L71.5452 51.1705L71.4671 50.8945L71.3557 50.6295L71.2331 50.3755L71.0994 50.1216L70.9435 49.8897L70.7652 49.6689L70.6204 49.5143L70.4756 49.3598L70.3196 49.2273L70.1525 49.1059L69.9743 48.9845L69.7961 48.8741L69.6067 48.7747L69.4173 48.6863L69.2168 48.5979L69.0162 48.5316L68.8046 48.4654L68.5929 48.3991L68.3701 48.3438L68.1473 48.2997L67.9245 48.2556L67.6906 48.2225L67.2116 48.1562L66.7325 48.1231L66.2424 48.0899L65.7411 48.0794H64.7385H63.747H63.4351H62.8781H62.1874H61.4187H60.6723H60.0374H59.5918H59.4247V29.8287H81.17L81.1694 48.0789ZM94.3815 60.9748H91.1175L96.0637 53.246L94.3815 60.9748ZM106.535 48.4432L106.524 52.9148L106.245 53.3013L105.989 53.6987L105.733 54.0962L105.499 54.4937L105.276 54.8912L105.053 55.2997L104.864 55.6971L104.674 56.0946L104.496 56.4811L104.34 56.8785L104.184 57.265L104.05 57.6404L103.928 58.0157L103.816 58.3801L103.716 58.7334L103.627 59.0867L103.571 59.3186L103.516 59.5615L103.46 59.7934L103.415 60.0363L103.371 60.2681L103.338 60.5L103.304 60.7318L103.282 60.9748H100.085L102.814 48.112L93.6123 48.1015L85.3798 60.9753H84.7783V29.8286H106.535L106.535 48.4432ZM119.079 66.2413L118.622 66.3186L118.154 66.3848L117.687 66.4511L117.23 66.5064L116.773 66.5505L116.316 66.5836L115.871 66.6058H115.425H115.135L114.846 66.5953L114.567 66.5731L114.289 66.54L114.021 66.4959L113.765 66.4517L113.509 66.3965L113.264 66.3302L113.03 66.253L112.796 66.1757L112.573 66.0763L112.362 65.9769L112.15 65.8555L111.949 65.7341L111.76 65.6016L111.582 65.4691L111.404 65.3146L111.248 65.1489L111.092 64.9833L110.947 64.7956L110.813 64.6079L110.691 64.3981L110.579 64.1884L110.468 63.9676L110.378 63.7357L110.3 63.4818L110.234 63.2278L110.167 62.9628L110.122 62.6868L110.089 62.3997L110.067 62.1016L110.055 61.7925H120.192L119.079 66.2413ZM131.935 60.9748H126.454L127.356 57.3754H116.372L115.47 60.9748H110.156V60.235L110.223 59.9259L110.278 59.6167L110.345 59.2855L110.412 58.9542L110.512 58.5899L110.612 58.2255L110.724 57.8612L110.846 57.5079L110.98 57.1546L111.125 56.8012L111.281 56.459L111.437 56.1167L111.615 55.7744L111.793 55.4543L111.983 55.123L112.194 54.8139L112.406 54.5047L112.618 54.2066L112.852 53.9195L113.097 53.6435L113.353 53.3785L113.609 53.1356L113.888 52.8927L114.166 52.6609L114.456 52.4511L114.768 52.2524L115.08 52.0757L115.403 51.9101L115.737 51.7555L116.082 51.623L116.439 51.5126L116.806 51.4242L117.185 51.347L117.575 51.2917L117.976 51.2586L118.388 51.2481L118.711 51.2586L119.034 51.2807L119.357 51.3248L119.669 51.3911L119.825 51.4352L119.97 51.4794L120.115 51.5235L120.249 51.5898L120.382 51.645L120.516 51.7223L120.639 51.7996L120.761 51.8768L120.873 51.9762L120.984 52.0756L121.084 52.175L121.185 52.2964L121.274 52.4068L121.352 52.5393L121.419 52.6828L121.486 52.8263L121.541 52.9809L121.586 53.1465L121.619 53.3121L121.652 53.4998L121.664 53.6875V53.8863V54.0961L121.642 54.3169H128.192L128.293 53.8642L128.382 53.3453L128.426 53.0692L128.449 52.7711L128.471 52.473V52.1639L128.46 51.8437L128.427 51.5125L128.394 51.3579L128.371 51.1923L128.327 51.0267L128.282 50.861L128.227 50.6844L128.171 50.5188L128.104 50.3532L128.026 50.1875L127.948 50.0219L127.848 49.8563L127.747 49.6907L127.636 49.5251L127.502 49.3484L127.358 49.1828L127.213 49.0172L127.057 48.8626L126.89 48.708L126.711 48.5645L126.533 48.432L126.344 48.2995L126.143 48.167L125.943 48.0566L125.731 47.9463L125.508 47.8359L125.286 47.7365L125.052 47.6371L124.806 47.5487L124.561 47.4603L124.316 47.383L124.049 47.3167L123.793 47.2505L123.514 47.1842L123.236 47.129L122.957 47.0737L122.668 47.0296L122.367 46.9964L121.754 46.9302L121.13 46.8749L120.473 46.8528L119.805 46.8423L119.303 46.8528L118.78 46.8633L118.234 46.8964L117.666 46.9405L117.075 47.0068L116.474 47.084L115.861 47.1834L115.237 47.3159L114.925 47.3822L114.602 47.4595L114.29 47.5478L113.967 47.6362L113.644 47.7356L113.321 47.846L112.998 47.9564L112.686 48.0778L112.363 48.2103L112.04 48.3539L111.728 48.4974L111.405 48.652L111.093 48.8176L110.781 48.9942L110.469 49.1709L110.157 49.3696V29.827H131.936V60.9737L131.935 60.9748Z" fill="#535862"/>
</svg>
