<svg width="160" height="100" viewBox="0 0 160 100" fill="none" xmlns="http://www.w3.org/2000/svg">
<path d="M90.2125 50.5744V66.8429C90.2125 67.6468 90.6326 68.1163 91.0659 68.412C91.5303 68.7238 92.2119 68.88 93.1304 68.88C93.7115 68.88 94.4793 68.6873 94.4793 68.6873V67.2283C94.2488 67.2426 94.0448 67.2559 93.8186 67.2559C92.4513 67.2559 92.2495 66.7217 92.2496 66.1272V50.5744H90.2125ZM47.1876 50.7396C45.6523 50.7396 44.2643 51.2212 43.2788 52.0884C42.3218 52.9343 41.7923 54.102 41.7923 55.3641C41.7923 56.7542 42.3549 57.8404 43.5265 58.6949C44.5599 59.4495 45.9267 59.9367 47.2427 60.4016C49.5304 61.2153 51.6746 61.958 51.6746 64.0352C51.6746 64.959 51.3603 65.7509 50.7662 66.2924C50.1129 66.8879 49.173 67.1733 47.9309 67.1733C45.7537 67.1733 44.1687 65.9678 43.2788 63.6223L41.3243 64.1453C41.7453 65.0965 42.4613 66.4693 43.499 67.3935C44.6367 68.4142 46.049 68.9075 47.8207 68.9075C49.9189 68.9075 51.5116 68.3663 52.5554 67.2834C53.6376 66.1561 53.8767 64.7134 53.8767 63.7048C53.8767 62.2597 53.2658 61.1437 52.0324 60.264C50.9556 59.4915 49.5621 58.9937 48.2061 58.5297C45.9967 57.7742 43.8884 57.0552 43.9119 55.199C43.9197 54.3334 44.2199 53.6596 44.7652 53.1895C45.3211 52.7119 46.1132 52.4738 47.1326 52.4738C48.2033 52.4738 49.158 52.7731 49.8853 53.3546C50.5541 53.8843 51.0408 54.6704 51.2616 55.5568L53.161 55.3091C52.3277 52.4682 50.2911 50.7396 47.1876 50.7396ZM42.1089 26V43.6724H44.1459V27.514L44.2009 27.569L49.0457 43.6724H50.6148L55.4871 27.569L55.5146 27.514V43.6724H57.5516V26H54.1658L49.844 40.204V40.2591L49.8165 40.204L45.4947 26H42.1089ZM57.0974 51.3452V55.5843H55.143V57.2084H57.0974C57.0974 57.2084 57.0974 66.292 57.0974 66.8429C57.0974 67.6468 57.4633 68.1163 57.8957 68.412C58.361 68.7238 59.0407 68.88 59.9602 68.88C60.542 68.88 61.3366 68.6873 61.3366 68.6873V67.2283C61.1104 67.2426 60.8737 67.2559 60.6484 67.2559C59.2793 67.2559 59.1344 66.7217 59.1344 66.1272V57.2084H61.3366V55.5843H59.1344V51.3452H57.0974ZM65.8097 30.3493C64.0945 30.3493 62.6407 31.0404 61.6256 32.3312C60.6835 33.5359 60.1667 35.2378 60.1667 37.121C60.1667 39.0059 60.6835 40.7046 61.6256 41.9107C62.6407 43.205 64.0945 43.8926 65.8097 43.8926C67.5321 43.8926 68.9814 43.205 69.9939 41.9107C70.9361 40.7046 71.4528 39.0059 71.4528 37.121C71.4528 35.2378 70.9361 33.5359 69.9939 32.3312C68.9814 31.0404 67.5321 30.3493 65.8097 30.3493ZM101.334 55.3641C100.463 55.3641 99.6533 55.5242 98.9662 55.8321C98.2937 56.1352 97.6964 56.5915 97.232 57.1809C96.3082 58.3378 95.773 60.0552 95.773 62.1358C95.773 64.4514 96.4384 66.2183 97.6449 67.3935C98.9175 68.6357 100.539 68.88 101.664 68.88C104.587 68.88 106.02 67.2986 106.619 65.852L104.995 65.0537C104.6 65.9345 103.692 67.2834 101.664 67.2834C100.504 67.2834 99.556 66.8087 98.8836 65.9346C98.2339 65.0886 97.8686 63.9178 97.8651 62.5212H106.784V61.2825C106.784 59.1427 106.214 57.547 105.16 56.5753C104.262 55.7499 103.003 55.3641 101.334 55.3641ZM86.6753 30.4043C84.3772 30.4043 81.1148 31.9507 81.1148 37.1485C81.1148 42.1953 84.367 43.8926 86.5652 43.8926C87.8482 43.8927 89.014 43.1819 89.8134 42.1584L89.9235 42.1034V44.5808C89.9235 46.3184 88.4197 47.3886 86.813 47.3886C85.2509 47.3886 83.868 47.0904 82.7389 46.5628V48.3245C83.6897 48.732 85.237 48.9852 86.5652 48.9852C90.1812 48.9852 91.9055 46.9951 91.9055 44.1129V30.6521H90.3915L89.9511 32.0284C89.2037 31.0547 88.2253 30.4043 86.6753 30.4043ZM99.8333 30.4043C96.9402 30.4043 95.5704 32.1374 94.9885 33.2121L96.6126 34.0655C96.8405 33.4514 97.6611 32.0284 99.8608 32.0284C101.595 32.0284 102.476 32.794 102.476 34.3132V34.7812C102.476 34.7812 102.49 34.9234 102.448 34.9739C102.384 35.0552 102.201 35.1217 101.76 35.1665C99.3316 35.4375 97.7174 35.8364 96.53 36.598C95.241 37.4265 94.438 38.5865 94.438 40.1765C94.438 41.306 94.9849 42.27 95.7042 42.9567C96.3731 43.5892 97.2845 43.9182 98.2918 43.9477C100.436 44.0165 101.847 43.1241 102.531 42.0759C102.584 42.7961 102.842 43.2076 103.412 43.5073C103.947 43.793 104.824 43.7362 105.201 43.6449V42.2685C104.747 42.2459 104.458 42.0299 104.458 41.4703V35.1665V34.3407C104.458 33.0398 103.947 31.9728 102.971 31.2852C102.167 30.7142 101.042 30.4043 99.8333 30.4043ZM113.845 30.4043C112.519 30.4044 111.162 31.0911 110.018 32.3863V30.6521H107.981V43.7H110.018V34.0104C110.711 33.2697 112.265 32.0284 113.679 32.0284C115.097 32.0284 115.716 32.7239 115.716 34.2857V43.7H117.753V34.2306C117.753 31.4115 115.749 30.4043 113.845 30.4043ZM68.7139 55.3917C65.8224 55.3917 64.4529 57.1247 63.8691 58.1994L65.4932 59.0528C65.722 58.4387 66.5415 57.0158 68.7414 57.0158C70.4757 57.0158 71.3565 57.7813 71.3565 59.3005V59.7685C71.3565 59.7685 71.3423 59.9107 71.3014 59.9612C71.2378 60.0425 71.0835 60.109 70.6408 60.1539C68.2122 60.4243 66.5979 60.8237 65.4106 61.5853C64.1223 62.4138 63.3185 63.5738 63.3185 65.1638C63.3186 66.2933 63.8645 67.2569 64.5848 67.944C65.2537 68.5765 66.1659 68.9055 67.1723 68.935C69.3147 69.0038 70.7278 68.1114 71.4115 67.0632C71.4654 67.7831 71.7217 68.1949 72.2924 68.4946C72.8264 68.7803 73.7042 68.7235 74.0816 68.6322V67.2559C73.6284 67.2332 73.3384 67.0173 73.3384 66.4576V60.1539V59.328C73.3384 58.0271 72.8013 56.9601 71.8244 56.2725C71.019 55.7015 69.9221 55.3917 68.7139 55.3917ZM82.7252 55.3917C81.3959 55.3917 80.0426 56.0784 78.8989 57.3736V55.6394H76.8619V68.6873H78.8989V58.9977C79.593 58.2566 81.1439 57.0158 82.56 57.0158C83.9752 57.0158 84.597 57.7112 84.597 59.273V68.6873H86.634V59.2179C86.634 56.3988 84.6292 55.3917 82.7252 55.3917ZM80.3441 30.4594C78.2773 30.4594 77.0525 31.2607 75.9948 33.1571V33.0194V30.6521H73.9578V43.6724H75.9948V36.2952C76.4977 33.6152 77.9165 32.3588 80.3441 32.3588V30.4594ZM108.16 55.6119L112.702 68.5496V68.6597C112.431 69.8997 111.646 71.4303 110.94 71.9079C110.318 72.3307 109.643 72.3759 109.124 72.3759C108.873 72.3759 108.355 72.2913 108.133 72.2383V73.8073C108.415 73.8765 109.065 74 109.482 74C110.452 74 111.271 73.757 111.959 73.2568C112.783 72.658 113.695 71.0972 114.134 69.7608L118.676 55.6119H116.694L113.721 65.6318L113.693 65.852L113.638 65.6318L110.142 55.6119H108.16ZM65.8097 31.9734C68.0027 31.9734 69.3057 33.8982 69.3057 37.121C69.3057 40.3446 68.0027 42.2685 65.8097 42.2685C63.6203 42.2685 62.3138 40.3446 62.3138 37.121C62.3138 33.8982 63.6203 31.9734 65.8097 31.9734ZM86.813 32.0009C87.9622 32.0009 88.9711 32.4975 89.9235 33.6801V39.9012C89.3963 41.4018 87.8864 42.2685 86.813 42.2685C84.7123 42.2685 83.262 40.9605 83.262 37.0384C83.262 33.7404 84.5636 32.0009 86.813 32.0009ZM101.389 56.9882C103.722 56.9882 104.766 58.2223 104.774 60.8971H97.9202C98.0976 58.2245 99.2175 56.9882 101.389 56.9882ZM102.531 36.598V39.9012C102.437 41.0416 100.306 42.4219 98.567 42.3236C97.6077 42.271 96.6833 41.4985 96.5851 40.2315C96.4259 38.1144 98.0167 37.2354 101.568 36.8457C101.815 36.8231 102.293 36.7354 102.531 36.598ZM71.4115 61.5853V64.8885C71.3176 66.0284 69.1864 67.4092 67.4476 67.3109C66.4899 67.2579 65.5612 66.4853 65.4656 65.2188C65.3039 63.1017 66.8965 62.2227 70.4481 61.833C70.6934 61.8104 71.1749 61.7227 71.4115 61.5853Z" fill="#535862"/>
</svg>
