<svg width="86" height="26" viewBox="0 0 86 26" fill="none" xmlns="http://www.w3.org/2000/svg">
<g clip-path="url(#clip0_1690_6117)">
<path d="M25.2647 0.960938H0.674887C0.523219 0.960938 0.377766 1.01731 0.27052 1.11766C0.163276 1.21801 0.103027 1.35411 0.103027 1.49603V24.5049C0.103027 24.6468 0.163276 24.7831 0.27052 24.8834C0.377766 24.9836 0.523219 25.04 0.674887 25.04H25.2647C25.4166 25.04 25.5619 24.9836 25.6692 24.8834C25.7764 24.7831 25.8368 24.6468 25.8368 24.5049V1.49603C25.8368 1.35411 25.7764 1.21801 25.6692 1.11766C25.5619 1.01731 25.4166 0.960938 25.2647 0.960938ZM17.2588 16.4786C17.2588 16.6205 17.1985 16.7566 17.0913 16.857C16.9841 16.9573 16.8386 17.0137 16.6869 17.0137H9.25276C9.1011 17.0137 8.95564 16.9573 8.8484 16.857C8.74116 16.7566 8.6809 16.6205 8.6809 16.4786V9.52241C8.6809 9.38049 8.74116 9.24439 8.8484 9.14405C8.95564 9.04369 9.1011 8.98731 9.25276 8.98731H16.6869C16.8386 8.98731 16.9841 9.04369 17.0913 9.14405C17.1985 9.24439 17.2588 9.38049 17.2588 9.52241V16.4786Z" fill="#000933" fill-opacity="0.65"/>
<path d="M76.7427 8.98828H69.3084C68.9928 8.98828 68.7366 9.22784 68.7366 9.52338V16.4796C68.7366 16.7751 68.9928 17.0147 69.3084 17.0147H76.7427C77.0586 17.0147 77.3145 16.7751 77.3145 16.4796V9.52338C77.3145 9.22784 77.0586 8.98828 76.7427 8.98828Z" fill="#000933" fill-opacity="0.65"/>
<path d="M68.1667 0.960938H60.7326C60.4167 0.960938 60.1608 1.20051 60.1608 1.49603V8.45223C60.1608 8.74775 60.4167 8.98732 60.7326 8.98732H68.1667C68.4825 8.98732 68.7387 8.74775 68.7387 8.45223V1.49603C68.7387 1.20051 68.4825 0.960938 68.1667 0.960938Z" fill="#000933" fill-opacity="0.65"/>
<path d="M85.3252 0.960938H77.8909C77.5753 0.960938 77.3191 1.20051 77.3191 1.49603V8.45223C77.3191 8.74775 77.5753 8.98732 77.8909 8.98732H85.3252C85.6411 8.98732 85.897 8.74775 85.897 8.45223V1.49603C85.897 1.20051 85.6411 0.960938 85.3252 0.960938Z" fill="#000933" fill-opacity="0.65"/>
<path d="M68.1667 17.0137H60.7326C60.4167 17.0137 60.1608 17.2532 60.1608 17.5487V24.505C60.1608 24.8005 60.4167 25.0401 60.7326 25.0401H68.1667C68.4825 25.0401 68.7387 24.8005 68.7387 24.505V17.5487C68.7387 17.2532 68.4825 17.0137 68.1667 17.0137Z" fill="#000933" fill-opacity="0.65"/>
<path d="M85.3252 17.0137H77.8909C77.5753 17.0137 77.3191 17.2532 77.3191 17.5487V24.505C77.3191 24.8005 77.5753 25.0401 77.8909 25.0401H85.3252C85.6411 25.0401 85.897 24.8005 85.897 24.505V17.5487C85.897 17.2532 85.6411 17.0137 85.3252 17.0137Z" fill="#000933" fill-opacity="0.65"/>
<path d="M55.2896 0.960938H47.8555C47.5396 0.960938 47.2834 1.20051 47.2834 1.49603V8.45223C47.2834 8.74775 47.5396 8.98732 47.8555 8.98732H55.2896C55.6054 8.98732 55.8614 8.74775 55.8614 8.45223V1.49603C55.8614 1.20051 55.6054 0.960938 55.2896 0.960938Z" fill="#000933" fill-opacity="0.65"/>
<path d="M55.2896 17.0137H47.8555C47.5396 17.0137 47.2834 17.2532 47.2834 17.5487V24.505C47.2834 24.8005 47.5396 25.0401 47.8555 25.0401H55.2896C55.6054 25.0401 55.8614 24.8005 55.8614 24.505V17.5487C55.8614 17.2532 55.6054 17.0137 55.2896 17.0137Z" fill="#000933" fill-opacity="0.65"/>
<path d="M47.2812 9.51639C47.2812 9.37448 47.2208 9.23837 47.1136 9.13803C47.0065 9.03767 46.8609 8.9813 46.7093 8.9813H38.7032V1.49603C38.7032 1.35411 38.6429 1.21801 38.5357 1.11766C38.4285 1.01731 38.283 0.960938 38.1314 0.960938H30.6973C30.5455 0.960938 30.4002 1.01731 30.2928 1.11766C30.1856 1.21801 30.1252 1.35411 30.1252 1.49603V24.4929C30.1252 24.6349 30.1856 24.7709 30.2928 24.8713C30.4002 24.9717 30.5455 25.028 30.6973 25.028H38.1314C38.283 25.028 38.4285 24.9717 38.5357 24.8713C38.6429 24.7709 38.7032 24.6349 38.7032 24.4929V17.0077H46.7093C46.8609 17.0077 47.0065 16.9513 47.1136 16.851C47.2208 16.7506 47.2812 16.6145 47.2812 16.4726V9.51639Z" fill="#000933" fill-opacity="0.65"/>
</g>
<defs>
<clipPath id="clip0_1690_6117">
<rect width="86" height="24.08" fill="white" transform="translate(0 0.960938)"/>
</clipPath>
</defs>
</svg>
