<svg width="80" height="38" viewBox="0 0 80 38" fill="none" xmlns="http://www.w3.org/2000/svg">
<g clip-path="url(#clip0_2927_19553)">
<path fill-rule="evenodd" clip-rule="evenodd" d="M79.9712 0.0284713V2.08253H0.0288184L0.0172911 1.11256C0.0115274 0.581925 0.0172911 0.114057 0.0288184 0.074117C0.0518732 0.0113542 7.46974 -5.71962e-05 79.9712 0.0284713ZM76.7666 5.36331H78.8473V10.0135C78.8473 14.327 78.853 14.6807 78.9452 14.8633C79.0144 14.9945 79.1124 15.0858 79.2219 15.1258C79.3141 15.1543 79.5331 15.1771 80 15.1771V16.0044C80 16.4609 79.9827 16.8432 79.9539 16.8546C79.9308 16.8717 79.706 16.9117 79.4524 16.9459C79.1182 16.9915 78.8818 16.9915 78.5879 16.9459C78.3631 16.9117 78.0288 16.8147 77.8386 16.7234C77.6369 16.6264 77.4063 16.4552 77.2738 16.3126C77.1527 16.1756 76.9971 15.9189 76.8012 15.4339L76.7666 5.36331ZM4.81268 5.44319C5.55043 5.4603 5.82133 5.48883 6.16715 5.59153C6.40346 5.66 6.80692 5.81976 7.06052 5.95099C7.38905 6.12217 7.63689 6.30475 7.95389 6.61856C8.21902 6.88673 8.46686 7.20625 8.59366 7.4516C8.7147 7.66841 8.84726 7.99934 8.89913 8.18763C8.95101 8.37592 8.99135 8.62697 8.99135 8.9579H6.85879L6.81844 8.74108C6.80115 8.62697 6.72046 8.41015 6.64553 8.2561C6.57061 8.10775 6.39769 7.88523 6.26513 7.754C6.13256 7.62847 5.87896 7.47442 5.70605 7.40595C5.48703 7.32607 5.19308 7.28042 4.78386 7.2576C4.40346 7.24048 4.05764 7.2576 3.86167 7.30325C3.683 7.34319 3.42363 7.43448 3.2853 7.50295C3.14121 7.57141 2.93372 7.73117 2.82421 7.851C2.72046 7.97652 2.59366 8.1591 2.55331 8.2561C2.51297 8.3588 2.47839 8.59844 2.47839 8.78673C2.47839 8.97502 2.51297 9.19754 2.55908 9.28313C2.59942 9.37442 2.7147 9.51136 2.80115 9.59124C2.89337 9.67682 3.04899 9.78523 3.15274 9.83658C3.25648 9.88793 3.51585 9.95069 3.72911 9.98493C3.94236 10.0135 4.41499 10.0648 4.78386 10.099C5.14697 10.1333 5.67723 10.2017 5.96542 10.2417C6.24784 10.2873 6.6513 10.3786 6.85879 10.4414C7.06052 10.5099 7.40058 10.6582 7.60807 10.7723C7.8098 10.8807 8.12104 11.1204 8.29971 11.2915C8.47839 11.4684 8.70317 11.7765 8.80692 11.9819C8.9049 12.1873 9.0317 12.4954 9.07781 12.6666C9.12392 12.8378 9.1585 13.2258 9.1585 13.5225C9.1585 13.8306 9.11816 14.2129 9.06628 14.4069C9.02017 14.5951 8.91066 14.8747 8.82997 15.0345C8.75504 15.1885 8.5879 15.4567 8.46109 15.6165C8.34006 15.7819 8.07493 16.0387 7.87896 16.1813C7.683 16.324 7.35447 16.518 7.1585 16.6093C6.96254 16.7005 6.59942 16.8261 6.35158 16.8888C6.10375 16.9516 5.63112 17.0315 5.30259 17.0657C4.9683 17.0942 4.50144 17.1056 4.26513 17.0885C4.02305 17.0714 3.68876 17.0258 3.51585 16.9972C3.33718 16.963 3.02594 16.8831 2.82421 16.8204C2.61671 16.7576 2.30548 16.6321 2.13256 16.5465C1.95389 16.4609 1.64841 16.2612 1.44092 16.1129C1.23919 15.9588 0.962536 15.6906 0.824207 15.5195C0.685879 15.3483 0.501441 15.0516 0.403458 14.8633C0.311239 14.675 0.195965 14.3669 0.149856 14.1786C0.103746 13.9903 0.0518732 13.7165 0 13.2942H2.1902L2.21902 13.5624C2.24207 13.7165 2.32277 13.9732 2.40922 14.1444C2.49568 14.3213 2.68588 14.5609 2.85303 14.7035C3.00865 14.8405 3.27954 15.0117 3.45821 15.0801C3.72911 15.1828 3.89049 15.1999 4.63977 15.2056C5.2853 15.2056 5.57925 15.1828 5.82133 15.1087C5.99424 15.0573 6.2536 14.9261 6.39769 14.8234C6.53602 14.715 6.73199 14.5038 6.82421 14.3441C6.96254 14.1216 7.00288 13.9789 7.02017 13.6651C7.03746 13.357 7.02017 13.2201 6.93948 13.066C6.88184 12.9576 6.76657 12.8035 6.68588 12.7294C6.60519 12.6609 6.44957 12.5525 6.34006 12.4954C6.22478 12.4384 5.98271 12.3528 5.79251 12.3014C5.60231 12.2558 5.0951 12.1873 4.66859 12.1531C4.23631 12.1189 3.65418 12.0561 3.37176 12.0105C3.08357 11.9648 2.70893 11.8792 2.53602 11.8222C2.35735 11.7594 2.07493 11.6396 1.90202 11.554C1.72334 11.4627 1.45245 11.2744 1.29683 11.1318C1.14121 10.9891 0.916426 10.7153 0.789625 10.527C0.668588 10.3387 0.512968 10.0192 0.449568 9.81376C0.363112 9.54559 0.334294 9.28883 0.334294 8.90084C0.334294 8.50715 0.363112 8.2561 0.449568 7.98793C0.518732 7.78253 0.668588 7.45159 0.789625 7.25189C0.910663 7.0522 1.17579 6.73268 1.38329 6.53868C1.58501 6.35039 1.9366 6.09934 2.16138 5.98523C2.3804 5.86541 2.69164 5.72847 2.85303 5.67712C3.00865 5.62577 3.30836 5.54589 3.51585 5.50024C3.76945 5.44889 4.17867 5.43177 4.81268 5.44319ZM0.00576369 22.8171L2.69741 22.8399C5.06628 22.857 5.42939 22.8684 5.73487 22.9597C5.92507 23.0168 6.27089 23.1537 6.51297 23.2678C6.79539 23.4105 7.06052 23.593 7.29107 23.8213C7.48127 24.0096 7.71758 24.3177 7.81556 24.5059C7.91931 24.6942 8.04035 25.0023 8.08646 25.1906C8.14409 25.3903 8.17867 25.7726 8.17867 26.1035C8.17867 26.4174 8.14409 26.7996 8.10375 26.9594C8.0634 27.1135 7.97695 27.3588 7.91354 27.5014C7.84438 27.6441 7.68876 27.9008 7.5562 28.072C7.42363 28.2432 7.15274 28.5056 6.95677 28.654C6.76081 28.8081 6.42075 28.9963 5.82709 29.2417L5.95965 29.527C6.02882 29.681 6.54755 30.7993 7.10663 32.009C7.66571 33.2186 8.12104 34.2228 8.12104 34.2456C8.12104 34.2741 7.90778 34.2912 7.17579 34.2912L4.92795 29.4414H0.92219V34.2912H0V28.5513L0.00576369 22.8171ZM0.92219 28.5912C4.76081 28.5912 4.9683 28.5798 5.38905 28.4714C5.64265 28.4087 5.96542 28.2945 6.10951 28.2147C6.2536 28.1405 6.48415 27.9693 6.62248 27.8324C6.76081 27.6954 6.95101 27.4273 7.04899 27.2219C7.19885 26.9081 7.22767 26.7597 7.25072 26.309C7.26801 25.9153 7.25072 25.6585 7.18156 25.396C7.12968 25.1906 7.00288 24.8939 6.89914 24.7399C6.79539 24.5858 6.55908 24.3462 6.36888 24.2093C6.17291 24.0666 5.86167 23.9126 5.64842 23.8441C5.44092 23.787 5.02594 23.7072 4.72622 23.6786C4.42651 23.6501 3.44669 23.6273 2.54755 23.6273H0.92219V28.5912ZM45.9827 25.4417C46.1383 25.4645 46.1441 25.4759 46.1671 26.1948H45.8501C45.6772 26.1948 45.4467 26.2291 45.3429 26.269C45.245 26.309 45.0893 26.4231 44.9971 26.5258C44.9107 26.6228 44.83 26.7711 44.8127 26.851C44.7954 26.9423 44.8415 27.0792 44.9568 27.2618C45.049 27.4102 45.1816 27.6897 45.245 27.878C45.3141 28.0663 45.3833 28.4087 45.4006 28.6483C45.4179 28.9393 45.4006 29.196 45.3314 29.4756C45.2795 29.6924 45.1527 30.0234 45.0548 30.206C44.951 30.3942 44.732 30.6681 44.5648 30.8222C44.4035 30.9762 44.0749 31.1873 43.8444 31.3014C43.6023 31.4156 43.2277 31.5354 42.9395 31.5867C42.6167 31.6495 42.3112 31.6666 42.0461 31.6438C41.8213 31.621 41.5274 31.5753 41.3833 31.5411C41.2392 31.5069 41.0144 31.4327 40.634 31.2729L40.3746 31.4441C40.2305 31.5354 40.0634 31.6951 40 31.7978C39.9251 31.912 39.8847 32.0831 39.8847 32.2543C39.8847 32.4711 39.9193 32.5624 40.0403 32.7051C40.1326 32.8078 40.2939 32.9276 40.4035 32.9732C40.5648 33.0474 40.9625 33.0702 42.3343 33.1045C43.6542 33.133 44.1499 33.1615 44.438 33.2357C44.6455 33.287 44.9683 33.4126 45.1527 33.5153C45.3372 33.6123 45.6138 33.8234 45.7579 33.9831C45.902 34.1372 46.0807 34.3825 46.1556 34.5252C46.2248 34.6621 46.3055 34.9474 46.3343 35.1528C46.3689 35.3867 46.3689 35.6435 46.3343 35.866C46.2997 36.0543 46.1902 36.3567 46.0922 36.545C45.9885 36.7276 45.7752 36.9957 45.6196 37.1327C45.4582 37.2696 45.1988 37.4465 45.0432 37.5207C44.8818 37.5948 44.5476 37.709 44.2939 37.7774C44.0403 37.8402 43.5331 37.9201 43.17 37.9543C42.6801 37.9999 42.3401 37.9999 41.8732 37.9543C41.5216 37.9201 41.0836 37.8516 40.8934 37.8002C40.7032 37.7546 40.3631 37.6291 40.1441 37.5207C39.8674 37.3894 39.6369 37.224 39.4236 36.9957C39.2046 36.7675 39.0663 36.5621 38.9914 36.351C38.9107 36.1342 38.8761 35.8888 38.8818 35.5807C38.8818 35.2498 38.9164 35.033 39.0086 34.8105C39.0778 34.6336 39.2277 34.3825 39.3487 34.2399C39.4697 34.1029 39.6657 33.9147 40 33.6693L39.8386 33.5894C39.7522 33.5438 39.5793 33.3954 39.4582 33.2585C39.3314 33.1216 39.1931 32.9276 39.1527 32.8249C39.1124 32.7222 39.0778 32.4768 39.0778 32.2828C39.0778 32.0318 39.1182 31.8435 39.2104 31.6438C39.2911 31.4726 39.4755 31.2387 39.9827 30.7879L39.7637 30.5026C39.6369 30.3429 39.4813 30.0747 39.4179 29.9035C39.3487 29.7267 39.2738 29.4186 39.245 29.2189C39.2104 29.0135 39.2046 28.7053 39.2277 28.5342C39.245 28.3573 39.3141 28.0663 39.3775 27.878C39.4409 27.6897 39.5793 27.4044 39.6772 27.2504C39.781 27.0906 39.9942 26.851 40.1499 26.7141C40.3055 26.5771 40.5476 26.406 40.6916 26.3375C40.8357 26.2633 41.0951 26.1606 41.268 26.1093C41.4409 26.0579 41.804 26.0008 42.0749 25.9837C42.4207 25.9609 42.6916 25.978 42.9971 26.0465C43.2334 26.0921 43.5965 26.212 43.804 26.309C44.0115 26.4002 44.1787 26.4744 44.1844 26.463C44.1844 26.4573 44.2305 26.3717 44.2882 26.2804C44.3458 26.1834 44.4611 26.0351 44.5476 25.9438C44.6282 25.8525 44.8242 25.7156 44.9856 25.6357C45.1412 25.5558 45.3948 25.4759 45.5504 25.4531C45.7003 25.436 45.8963 25.4303 45.9827 25.4417ZM41.1931 26.9993C41.0605 27.0678 40.8761 27.1762 40.7896 27.2447C40.6974 27.3075 40.536 27.49 40.4323 27.6498C40.3228 27.8038 40.1902 28.1005 40.1383 28.306C40.0692 28.5627 40.0576 28.7852 40.0807 29.0477C40.1037 29.2702 40.1844 29.5498 40.2824 29.7609C40.3804 29.9606 40.5533 30.1888 40.6974 30.3144C40.8357 30.4342 41.0548 30.5825 41.1816 30.6396C41.3084 30.6966 41.5793 30.7765 41.7867 30.8165C42 30.8564 42.3228 30.8735 42.536 30.8564C42.7435 30.8393 43.0663 30.7651 43.2565 30.6966C43.5159 30.6054 43.6888 30.4855 43.9539 30.2231C44.2075 29.9663 44.3285 29.7894 44.4092 29.5612C44.4841 29.3558 44.5187 29.0876 44.5187 28.7909C44.5187 28.3915 44.4957 28.2831 44.3401 27.9636C44.2209 27.7164 44.0576 27.4995 43.8501 27.3132C43.683 27.1591 43.4063 26.9879 43.2277 26.9195C43.0144 26.8396 42.7435 26.7996 42.3919 26.7825C42.1037 26.7768 41.7752 26.7939 41.6542 26.8225C41.5389 26.851 41.3314 26.9309 41.1931 26.9993ZM40.5476 34.1144C40.3862 34.2057 40.1614 34.3882 40.0403 34.5309C39.9193 34.6678 39.7925 34.8846 39.7579 35.0102C39.7233 35.1357 39.6945 35.3924 39.6945 35.5807C39.6945 35.8032 39.7349 35.9972 39.8098 36.1513C39.8732 36.2768 40.0403 36.4822 40.1844 36.6078C40.3458 36.7504 40.5821 36.8816 40.8242 36.9615C41.0375 37.03 41.4121 37.1213 41.6542 37.1555C41.9135 37.1897 42.415 37.2011 42.8242 37.184C43.2219 37.1669 43.6888 37.1213 43.8617 37.087C44.0346 37.0471 44.3055 36.9615 44.4669 36.893C44.6225 36.8246 44.8646 36.6705 45.0029 36.545C45.1412 36.4195 45.3026 36.2198 45.366 36.0942C45.4352 35.9402 45.4755 35.7405 45.4755 35.4951C45.4755 35.2555 45.4352 35.0387 45.366 34.896C45.3084 34.7705 45.1643 34.5765 45.0375 34.4624C44.9164 34.3483 44.6571 34.1942 44.4669 34.1201C44.1326 33.9888 44.0576 33.9831 42.4784 33.966L40.8357 33.9489L40.5476 34.1144ZM14.2075 5.37472C14.4611 5.36901 14.8357 5.40325 15.0432 5.44889C15.2507 5.48883 15.5965 5.61436 15.8156 5.71706C16.0346 5.82547 16.3343 6.01376 16.4784 6.14499C16.6225 6.27051 16.8357 6.51586 16.9452 6.68703C17.0548 6.8525 17.1931 7.14919 17.2507 7.33748C17.3314 7.57142 17.366 7.84529 17.366 8.22187C17.366 8.64979 17.3372 8.83238 17.2334 9.10625C17.1585 9.29454 17.0202 9.57412 16.9164 9.73388C16.8184 9.88793 16.5533 10.1846 16.3343 10.39C16.1153 10.5954 15.7867 10.8522 15.6081 10.9606C15.4236 11.069 15.2853 11.1774 15.2911 11.1945C15.2968 11.2174 15.7176 11.6795 16.2248 12.2273C16.732 12.7807 17.1643 13.2144 17.1931 13.1915C17.2161 13.1744 17.2738 13.0032 17.3256 12.815C17.3718 12.6267 17.4294 12.0276 17.4928 10.5041H20.4611L20.4323 12.1303L19.1643 12.1588L19.1182 12.5981C19.0893 12.8435 19.0202 13.2372 18.9568 13.4711C18.8934 13.705 18.7666 14.0645 18.6744 14.2699C18.5303 14.578 18.513 14.6579 18.5706 14.7378C18.611 14.7891 19.0663 15.2798 19.5793 15.8333C20.098 16.3867 20.5187 16.8489 20.5187 16.866C20.5187 16.8831 19.9654 16.8945 18.0692 16.8945L17.6657 16.4609C17.2622 16.033 17.2622 16.033 17.147 16.1414C17.0836 16.2041 16.8876 16.3411 16.7147 16.4552C16.5418 16.5636 16.2017 16.7348 15.9654 16.8261C15.7291 16.9231 15.3256 17.0429 15.072 17.0999C14.7205 17.1684 14.438 17.1855 13.8905 17.1627C13.4179 17.1399 13.049 17.0942 12.8242 17.0201C12.634 16.963 12.2882 16.8147 12.0519 16.6891C11.7522 16.5351 11.5043 16.3411 11.2277 16.0501C10.9683 15.7762 10.7723 15.5023 10.6398 15.2228C10.5303 14.9945 10.4092 14.6978 10.3689 14.5552C10.3285 14.4126 10.2939 14.0417 10.2997 13.7279C10.2997 13.2885 10.3285 13.0717 10.4265 12.7864C10.5014 12.581 10.6282 12.3014 10.7089 12.1588C10.7954 12.0162 11.0202 11.7366 11.2104 11.5369C11.4006 11.3372 11.7176 11.0576 12.2767 10.6753L12.0231 10.3729C11.8847 10.2075 11.6715 9.92217 11.562 9.73388C11.4467 9.54559 11.3026 9.23748 11.245 9.04919C11.1816 8.8609 11.1182 8.59274 11.0951 8.45009C11.0778 8.30745 11.0893 8.01075 11.1239 7.79394C11.1585 7.54859 11.268 7.22337 11.3948 6.96661C11.5331 6.68132 11.7157 6.42837 11.9424 6.20775C12.1556 6.00235 12.4207 5.81406 12.6628 5.69994C12.8818 5.60295 13.2104 5.48883 13.4006 5.44889C13.5908 5.40895 13.9539 5.37472 14.2075 5.37472ZM13.2392 7.46871C13.1527 7.56571 13.0548 7.7597 13.0202 7.89093C12.9683 8.07352 12.9683 8.21616 13.0202 8.45009C13.0548 8.62127 13.1643 8.87802 13.2565 9.02066C13.3487 9.16331 13.5677 9.42006 13.7406 9.59124L14.0576 9.90505C14.5303 9.60835 14.7723 9.43718 14.8991 9.33448C15.0259 9.23748 15.1988 9.01496 15.2911 8.84379C15.3948 8.63838 15.4467 8.44439 15.4467 8.27892C15.4467 8.13628 15.4236 7.93087 15.389 7.82247C15.3602 7.71406 15.2392 7.52577 15.1182 7.41165C14.9971 7.29754 14.83 7.17202 14.7378 7.13778C14.6513 7.10925 14.4207 7.08072 14.219 7.08072C14 7.08072 13.7752 7.12066 13.6311 7.18343C13.5043 7.24048 13.3314 7.37172 13.2392 7.46871ZM12.4784 12.7579C12.3631 12.9005 12.2709 13.1117 12.2248 13.3285C12.1844 13.5168 12.1671 13.7678 12.1902 13.899C12.2133 14.0246 12.2824 14.2414 12.3458 14.384C12.4035 14.5267 12.5245 14.715 12.611 14.8005C12.6974 14.8918 12.8588 15.0231 12.9683 15.0972C13.0778 15.1657 13.3141 15.2684 13.487 15.3198C13.6657 15.3711 14.0058 15.4111 14.2651 15.4111C14.5591 15.4111 14.8646 15.3711 15.1009 15.3026C15.3084 15.2399 15.5908 15.1029 15.7349 15.0002C15.879 14.8918 15.9942 14.7777 15.9942 14.7435C15.9942 14.7093 15.4409 14.0759 14.7666 13.3342C14.098 12.5924 13.5101 11.9876 13.464 11.9876C13.4179 11.9876 13.2161 12.1075 13.0202 12.2558C12.8184 12.4041 12.5764 12.6324 12.4784 12.7579ZM39.4813 5.37472C39.562 5.36901 39.8559 5.39754 40.1441 5.42607C40.4265 5.4603 40.8934 5.56301 41.1816 5.66C41.464 5.757 41.8156 5.89964 41.9597 5.98523C42.1037 6.06511 42.3689 6.24769 42.5533 6.39033C42.7378 6.53298 43.0029 6.79544 43.1354 6.96661C43.2738 7.13778 43.464 7.44018 43.5677 7.63418C43.6657 7.83388 43.7867 8.14199 43.8329 8.31886C43.879 8.50144 43.9193 8.72967 43.9193 9.02066H41.7867L41.7522 8.83238C41.7291 8.72967 41.6657 8.5528 41.6081 8.43298C41.5447 8.31886 41.389 8.10205 41.2507 7.9594C41.1182 7.81105 40.9049 7.63418 40.7781 7.56C40.6513 7.49154 40.4323 7.40024 40.2882 7.36601C40.1441 7.32607 39.8213 7.29754 39.5677 7.29754C39.2911 7.29754 38.9683 7.34319 38.7608 7.40595C38.5706 7.46301 38.2997 7.57712 38.1556 7.66271C38.0115 7.74259 37.7867 7.92517 37.6484 8.07352C37.5159 8.21616 37.3314 8.48433 37.2392 8.66121C37.147 8.84379 37.0317 9.14619 36.9798 9.33448C36.928 9.52277 36.8588 10.0249 36.8242 10.4471C36.7723 11.0234 36.7723 11.4171 36.8184 12.0162C36.8588 12.4555 36.9395 12.9975 37.0029 13.2258C37.0663 13.454 37.1816 13.7621 37.2565 13.9105C37.3314 14.0588 37.5216 14.3213 37.6715 14.4867C37.8501 14.6807 38.0807 14.8576 38.2997 14.9603C38.4899 15.0516 38.8012 15.1543 38.9914 15.1885C39.1816 15.2228 39.5101 15.2342 39.7233 15.2171C39.9424 15.1999 40.2651 15.1258 40.4438 15.0573C40.6513 14.9774 40.8991 14.8177 41.0951 14.6351C41.268 14.4753 41.4813 14.2014 41.5677 14.036C41.6599 13.8648 41.7695 13.5453 41.8156 13.3285C41.8617 13.106 41.902 12.8207 41.902 12.4441H39.1931L39.2219 10.7038H43.9481L43.9769 16.8945H43.2853C42.6167 16.8945 42.5937 16.8888 42.5648 16.7633C42.5476 16.6948 42.4957 16.4495 42.4496 16.2213C42.4035 15.993 42.3631 15.799 42.3631 15.7819C42.3631 15.7648 42.1902 15.9246 41.9712 16.1414C41.7176 16.3981 41.464 16.5864 41.2392 16.6891C41.049 16.7804 40.7781 16.8888 40.634 16.9288C40.4899 16.9687 40.1671 17.0315 39.9135 17.0657C39.6061 17.1037 39.2699 17.1037 38.9049 17.0657C38.6052 17.0372 38.2017 16.9687 38.0115 16.9231C37.8213 16.8717 37.4467 16.7291 37.1758 16.5978C36.7723 16.4038 36.5937 16.2726 36.1671 15.8447C35.7233 15.3996 35.6023 15.2342 35.3429 14.7264C35.1643 14.3726 34.9856 13.9047 34.8991 13.5852C34.8242 13.2885 34.732 12.7579 34.6974 12.4156C34.6513 12.0162 34.6398 11.4285 34.6571 10.818C34.6801 10.1618 34.732 9.6597 34.8184 9.27742C34.8818 8.96361 35.0029 8.54139 35.0778 8.33598C35.1585 8.13057 35.3199 7.79964 35.4409 7.59424C35.562 7.38883 35.8156 7.0579 36 6.8582C36.1844 6.6585 36.4957 6.39033 36.6859 6.2591C36.8761 6.13358 37.2104 5.94529 37.4352 5.84829C37.6542 5.74559 38.0058 5.62006 38.2133 5.56871C38.4207 5.51165 38.755 5.44889 38.9625 5.42607C39.17 5.40325 39.4006 5.38042 39.4813 5.37472ZM45.7579 5.36901H47.8386L47.8674 14.8348L48.0288 14.9945C48.1671 15.1315 48.2363 15.1543 48.9914 15.1828V16.0102C48.9914 16.4666 48.9741 16.8489 48.9452 16.8603C48.9222 16.8774 48.6974 16.9174 48.4438 16.9516C48.1095 16.9972 47.8732 16.9972 47.5793 16.9516C47.3545 16.9174 47.0202 16.8147 46.83 16.7291C46.6282 16.6321 46.3919 16.4609 46.2651 16.3126C46.1441 16.1756 45.9885 15.9246 45.7925 15.4396L45.7579 5.36901ZM58.9625 5.42607H60.9798V9.13478L61.2219 8.94649C61.3545 8.84379 61.6081 8.70114 61.7867 8.63838C61.9597 8.56991 62.2824 8.48433 62.5014 8.44439C62.7435 8.40445 63.1066 8.38733 63.4006 8.41015C63.6657 8.42727 64.0403 8.49574 64.2305 8.56421C64.4208 8.62697 64.7089 8.7525 64.8588 8.83808C65.0144 8.92367 65.3256 9.18613 65.5447 9.42006C65.8136 9.70535 66.0231 10.0001 66.1729 10.3044C66.2939 10.5555 66.4496 10.9663 66.5187 11.2174C66.6282 11.6053 66.6455 11.8222 66.6455 12.7294C66.6455 13.6423 66.6282 13.8477 66.5187 14.2414C66.4496 14.4924 66.2824 14.9147 66.1498 15.1828C65.9654 15.548 65.804 15.7705 65.4755 16.1014C65.1758 16.3981 64.9222 16.5921 64.6686 16.712C64.4611 16.8147 64.1499 16.9345 63.9769 16.9801C63.7983 17.0258 63.4121 17.0657 63.1124 17.0657C62.8069 17.0657 62.4323 17.0315 62.2709 16.9858C62.1153 16.9459 61.8501 16.8432 61.683 16.7576C61.5158 16.6777 61.2565 16.4894 61.1066 16.3525C60.9568 16.2099 60.8242 16.09 60.8184 16.0957C60.8127 16.0957 60.7896 16.2726 60.7493 16.8945H58.9625V5.42607ZM61.8674 10.3273C61.804 10.3729 61.6657 10.487 61.562 10.584C61.4582 10.681 61.3084 10.8807 61.2334 11.0291C61.1527 11.1774 61.0548 11.4627 61.0086 11.6567C60.9568 11.8735 60.9222 12.29 60.9222 12.7008C60.9222 13.0774 60.9568 13.551 61.0029 13.7564C61.0432 13.9618 61.1412 14.2528 61.2161 14.4069C61.2911 14.5666 61.4582 14.7948 61.585 14.9261C61.7291 15.0744 61.9251 15.1942 62.1326 15.2627C62.3516 15.3369 62.5591 15.3597 62.8242 15.3426C63.0432 15.3312 63.3026 15.2684 63.4582 15.1999C63.5965 15.1315 63.8098 14.9831 63.9308 14.869C64.0519 14.7606 64.2017 14.5609 64.2709 14.424C64.3401 14.2927 64.4323 14.0531 64.4726 13.899C64.5187 13.7393 64.5706 13.3456 64.5879 13.0147C64.6109 12.6666 64.5937 12.2387 64.5591 11.999C64.5245 11.7708 64.4438 11.4513 64.3804 11.2858C64.317 11.1204 64.1556 10.8579 64.0173 10.7038C63.8501 10.5213 63.6542 10.3672 63.4524 10.2816C63.2795 10.2075 62.9971 10.139 62.8242 10.1276C62.6455 10.1162 62.3862 10.139 62.2421 10.1732C62.098 10.2132 61.9251 10.2816 61.8674 10.3273ZM22.0231 5.58583L24.7147 5.60865C27.2161 5.63147 27.4352 5.63718 27.8386 5.75129C28.0749 5.81406 28.438 5.95099 28.6455 6.0537C28.8473 6.15069 29.1585 6.34469 29.3256 6.47021C29.4928 6.60144 29.7464 6.87532 29.8905 7.08072C30.0288 7.28613 30.2133 7.64559 30.2939 7.87952C30.4207 8.22757 30.4553 8.43868 30.4784 9.02066C30.4957 9.57412 30.4784 9.83658 30.3977 10.1903C30.3401 10.4414 30.2075 10.8237 30.0922 11.0462C29.9597 11.3087 29.7637 11.5711 29.5101 11.8165C29.2565 12.0675 28.9914 12.2558 28.7032 12.3984C28.4611 12.5126 28.1153 12.6495 27.9251 12.7066C27.6369 12.7864 27.268 12.8093 24.0865 12.8435V16.8945H22.0173V11.2402L22.0231 5.58583ZM24.0922 11.012C27.0778 10.9834 27.1239 10.9834 27.4294 10.8408C27.6138 10.7609 27.8329 10.5954 27.9654 10.4414C28.0922 10.2987 28.2248 10.0648 28.2709 9.89934C28.317 9.74529 28.3573 9.44859 28.3573 9.24319C28.3573 9.04349 28.317 8.73538 28.2651 8.5585C28.196 8.32457 28.098 8.17622 27.8732 7.9537C27.6542 7.73117 27.4986 7.63988 27.2622 7.56571C27.0086 7.49154 26.6628 7.47442 25.5159 7.47442H24.0922V11.012ZM53.7176 8.41586C54.1614 8.43298 54.4438 8.47862 54.7839 8.58703C55.0375 8.66691 55.3718 8.80385 55.5331 8.89514C55.6888 8.98643 55.9712 9.19754 56.1556 9.36871C56.3458 9.53418 56.5937 9.82517 56.7147 10.0135C56.83 10.2017 56.9914 10.5099 57.072 10.6981C57.1527 10.8864 57.268 11.2231 57.3256 11.4399C57.4063 11.7537 57.4294 12.0447 57.4294 12.7522C57.4236 13.5053 57.4006 13.7507 57.3026 14.1216C57.2334 14.3726 57.0548 14.8234 56.9049 15.1201C56.6974 15.5252 56.5303 15.7591 56.2536 16.0387C55.9769 16.3126 55.7464 16.478 55.389 16.6549C55.1182 16.7861 54.732 16.9345 54.5245 16.9858C54.2882 17.0486 53.9251 17.0828 53.5447 17.0828C53.1643 17.0828 52.8012 17.0486 52.5648 16.9858C52.3573 16.9345 51.9827 16.7918 51.7291 16.672C51.4063 16.5123 51.1527 16.3411 50.8934 16.0843C50.6859 15.8789 50.4323 15.5765 50.3285 15.4053C50.2305 15.2342 50.0807 14.9375 50 14.7492C49.9251 14.5609 49.8156 14.2414 49.7579 14.036C49.6772 13.7507 49.6542 13.4597 49.6542 12.7237C49.6542 11.9135 49.6715 11.7252 49.7867 11.3258C49.8617 11.0747 50.0403 10.6411 50.1902 10.3558C50.3746 9.99634 50.5648 9.73388 50.83 9.47142C51.0375 9.26601 51.3775 9.00355 51.585 8.88943C51.7925 8.78102 52.1037 8.64409 52.2767 8.58703C52.4496 8.53568 52.7089 8.46721 52.853 8.44439C52.9971 8.41586 53.3833 8.40445 53.7176 8.41586ZM52.5764 10.4585C52.4438 10.5441 52.2594 10.7267 52.1729 10.8579C52.0807 10.9891 51.9654 11.2117 51.9135 11.3429C51.8559 11.4741 51.7867 11.8222 51.7522 12.1132C51.7118 12.4099 51.7061 12.8549 51.7233 13.1231C51.7464 13.3912 51.7925 13.7279 51.8271 13.8648C51.8617 14.0075 51.9424 14.2243 52 14.3498C52.0634 14.4753 52.2075 14.6807 52.3228 14.8005C52.438 14.9204 52.6398 15.0744 52.7666 15.1372C52.9222 15.2171 53.1412 15.2627 53.4582 15.2798C53.8098 15.2969 53.9769 15.2798 54.1787 15.2056C54.3228 15.1486 54.5476 14.9945 54.6859 14.869C54.8242 14.7435 54.9914 14.5324 55.0548 14.4069C55.1239 14.2813 55.2104 14.0531 55.2507 13.8933C55.2911 13.7393 55.3429 13.3684 55.366 13.066C55.3833 12.7579 55.3718 12.33 55.3372 12.0675C55.3026 11.8165 55.2334 11.4969 55.1873 11.3543C55.1354 11.2174 55.0029 10.972 54.8818 10.8123C54.7378 10.6297 54.5533 10.4756 54.3458 10.3729C54.1499 10.2759 53.9078 10.2075 53.6888 10.1846C53.4986 10.1732 53.2219 10.1903 53.0778 10.2303C52.9337 10.2702 52.7089 10.3729 52.5764 10.4585ZM71.6426 8.41586C72.0519 8.43298 72.513 8.47862 72.7089 8.53568C72.8991 8.58703 73.1988 8.69544 73.3718 8.78102C73.5447 8.8609 73.8386 9.07202 74.0231 9.24319C74.2075 9.42006 74.4207 9.68823 74.5014 9.84229C74.5764 10.002 74.6801 10.2702 74.732 10.4414C74.8127 10.6981 74.8357 11.1603 74.8991 15.1315L75.0432 15.2456C75.147 15.3312 75.2392 15.354 75.562 15.2912V16.8032L75.3199 16.8831C75.1816 16.9288 74.9164 16.9744 74.7262 16.9915C74.4957 17.0087 74.2651 16.9858 74.0461 16.9288C73.8213 16.866 73.6484 16.769 73.4986 16.6207C73.3775 16.5008 73.245 16.3126 73.1412 15.9759L72.8242 16.2897C72.634 16.478 72.3631 16.672 72.1441 16.7747C71.9481 16.866 71.585 16.9801 71.3372 17.0315C71.0951 17.0771 70.7608 17.1171 70.6052 17.1171C70.4438 17.1171 70.1153 17.0828 69.8674 17.0315C69.6254 16.9858 69.268 16.8717 69.0778 16.7804C68.8876 16.6891 68.5764 16.478 68.3919 16.3126C68.1499 16.0957 67.9942 15.8846 67.8444 15.5822C67.6426 15.1657 67.6369 15.1429 67.6369 14.4981C67.6369 13.9276 67.6542 13.7906 67.7752 13.4939C67.8674 13.2828 68.0346 13.0318 68.2363 12.8207C68.415 12.6381 68.6859 12.4156 68.8473 12.3243C69.0029 12.2387 69.3141 12.1132 69.5389 12.0447C69.8156 11.9591 70.2824 11.8963 71.0375 11.8393C71.6369 11.7936 72.2939 11.7423 72.853 11.6966V11.3429C72.853 11.1489 72.8184 10.8579 72.7723 10.6981C72.7147 10.508 72.6186 10.352 72.4841 10.2303C72.3689 10.1276 72.1787 10.0249 72.0576 10.002C71.9424 9.97922 71.6772 9.96211 71.4697 9.96211C71.2622 9.96781 70.9625 10.0078 70.8069 10.0591C70.6167 10.1219 70.4438 10.236 70.2997 10.3843C70.1787 10.5156 70.0519 10.7267 69.9424 11.1318L68.0115 11.1261V10.9435C68.0058 10.8408 68.0576 10.5897 68.121 10.3843C68.1844 10.1846 68.3458 9.84799 68.4841 9.64829C68.6513 9.39724 68.8415 9.20325 69.0778 9.04349C69.268 8.91796 69.5792 8.7525 69.7695 8.67832C69.9597 8.60985 70.2939 8.51286 70.5187 8.47292C70.7839 8.42157 71.17 8.39874 71.6426 8.41586ZM70.5187 13.4312C70.3919 13.454 70.1787 13.5453 70.0403 13.6366C69.9078 13.7336 69.7522 13.8933 69.7003 13.996C69.6484 14.0987 69.6081 14.3099 69.6138 14.4639C69.6138 14.675 69.6599 14.812 69.7637 14.966C69.8444 15.0858 70.0115 15.2285 70.1268 15.2855C70.2478 15.3483 70.4611 15.4168 70.6052 15.4339C70.7493 15.4567 71.0202 15.4453 71.2104 15.4111C71.4006 15.3768 71.7118 15.2741 71.902 15.1885C72.098 15.0915 72.3228 14.9261 72.4323 14.8005C72.5303 14.6807 72.6571 14.4753 72.7089 14.3498C72.7666 14.2186 72.8127 13.939 72.8242 13.6822L72.8357 13.2372C72.513 13.2543 72.0461 13.2885 71.585 13.3228C71.1239 13.3627 70.6455 13.4084 70.5187 13.4312ZM25.7061 22.8228H26.9164V23.9639H25.7061V22.8228ZM20.9914 23.7813C21.0259 23.7927 21.0432 24.2891 21.0375 26.1891H23.5735L23.5447 26.9594L21.0375 26.9879L21.0663 32.7792L21.2161 33.036C21.2968 33.1786 21.464 33.3612 21.5908 33.4354C21.7925 33.5666 21.8732 33.578 22.3919 33.578C22.7089 33.578 23.1297 33.5609 23.6888 33.4924V34.2342L23.4121 34.2969C23.2622 34.3312 22.8415 34.3768 22.4784 34.3939C21.9366 34.4168 21.7579 34.4053 21.4986 34.3255C21.3256 34.2684 21.0778 34.1543 20.951 34.063C20.8242 33.9774 20.634 33.7663 20.536 33.6008C20.4323 33.4354 20.3112 33.1387 20.2594 32.9504C20.1844 32.6651 20.1729 32.1516 20.1729 26.9879L18.5303 26.9594L18.5014 26.1891H20.1729L20.2017 23.9411L20.5706 23.8498C20.7723 23.7984 20.9625 23.7699 20.9914 23.7813ZM13.487 25.9723C13.6945 25.9666 14.0173 25.9894 14.2075 26.018C14.3977 26.0522 14.6916 26.1207 14.8703 26.1777C15.0432 26.2348 15.3372 26.3774 15.5274 26.5029C15.7118 26.6285 15.9481 26.851 16.0461 26.9879C16.1499 27.1306 16.2882 27.4159 16.3689 27.6156C16.5014 27.9864 16.5014 28.0207 16.5245 30.4684C16.536 31.8378 16.5533 33.036 16.5706 33.1387C16.5879 33.2414 16.6513 33.3726 16.7147 33.4354C16.7954 33.521 16.9049 33.5495 17.4063 33.5495L17.3775 34.3198L17.0605 34.3426C16.8876 34.3483 16.6455 34.3312 16.5245 34.2969C16.4092 34.2627 16.2305 34.1657 16.1268 34.0801C16.0288 33.9945 15.8963 33.8177 15.8329 33.6921C15.7752 33.5666 15.7061 33.3498 15.6542 32.9504L15.4352 33.2813C15.3141 33.4639 15.0778 33.7093 14.9107 33.8348C14.7435 33.9603 14.4553 34.1258 14.2651 34.2114C14.0749 34.2969 13.7522 34.3996 13.5447 34.4396C13.3372 34.4852 12.9741 34.5195 12.7378 34.5195C12.5014 34.5195 12.1441 34.4795 11.9424 34.4339C11.7464 34.3882 11.4352 34.2741 11.2507 34.1828C11.072 34.0915 10.8184 33.9318 10.6916 33.8177C10.5648 33.7093 10.3746 33.4867 10.2767 33.3156C10.1729 33.1501 10.0461 32.842 9.99424 32.6366C9.93084 32.3855 9.90778 32.1345 9.92507 31.8378C9.94236 31.5582 10 31.3072 10.0922 31.096C10.1729 30.9249 10.3112 30.6852 10.4035 30.5654C10.5014 30.4456 10.732 30.2402 10.9222 30.1204C11.1124 29.9948 11.4755 29.8294 11.7291 29.7495C12.1153 29.6297 12.4669 29.5897 15.6772 29.3558V28.9279C15.6772 28.6939 15.6427 28.3345 15.6081 28.1291C15.5677 27.9237 15.4755 27.6669 15.389 27.5471C15.3084 27.433 15.1412 27.2675 15.0144 27.1819C14.8876 27.0963 14.6801 26.9936 14.5533 26.948C14.4265 26.9081 14.1441 26.8453 13.9308 26.8168C13.6888 26.7825 13.389 26.7825 13.1239 26.8168C12.8934 26.8453 12.5533 26.9252 12.3631 26.9993C12.1671 27.0678 11.9078 27.2276 11.7637 27.3588C11.6254 27.4843 11.4697 27.6669 11.4236 27.7582C11.3718 27.8552 11.3026 28.072 11.1988 28.557H10.3458L10.3631 28.3573C10.3746 28.2489 10.4323 28.0035 10.4899 27.8153C10.5533 27.627 10.7032 27.336 10.8242 27.1591C10.9452 26.9879 11.1758 26.754 11.3314 26.6399C11.487 26.5201 11.7579 26.366 11.9308 26.2861C12.1037 26.212 12.3919 26.1207 12.5648 26.0864C12.7378 26.0522 12.9337 26.0123 12.9971 26.0008C13.0605 25.9894 13.2795 25.9723 13.487 25.9723ZM12.2767 30.4171C12.1037 30.4513 11.8444 30.5426 11.7003 30.6168C11.5562 30.6852 11.3429 30.845 11.2277 30.9648C11.1066 31.0846 10.9683 31.2843 10.9164 31.4099C10.853 31.5525 10.8184 31.7921 10.8184 32.0375C10.8184 32.3285 10.853 32.5225 10.9452 32.7222C11.0144 32.8819 11.1297 33.0702 11.1988 33.1444C11.268 33.2186 11.4294 33.3384 11.5562 33.4126C11.683 33.4924 11.9308 33.5894 12.1037 33.6351C12.2767 33.6807 12.5937 33.7207 12.8069 33.7207C13.0202 33.7207 13.3314 33.6921 13.4986 33.6579C13.6657 33.6237 13.9597 33.5153 14.1441 33.4183C14.3343 33.3213 14.6052 33.1216 14.755 32.9789C14.8991 32.842 15.1009 32.5852 15.1988 32.4084C15.2968 32.2372 15.4352 31.9063 15.4986 31.6666C15.562 31.4327 15.6369 31.0047 15.6599 30.7138L15.7061 30.1831C15.0778 30.2002 14.3804 30.2345 13.7464 30.2744C13.1124 30.3144 12.4496 30.3771 12.2767 30.4171ZM33.6023 25.9666C33.7752 25.9666 34.0865 25.9894 34.2939 26.0237C34.5014 26.0579 34.8357 26.1606 35.0432 26.2519C35.2507 26.3489 35.5447 26.5486 35.6945 26.6912C35.8501 26.8396 36.0461 27.102 36.1383 27.2732C36.2248 27.4501 36.3458 27.7297 36.4035 27.9008C36.4957 28.1861 36.5072 28.4942 36.5418 34.2912H35.6772L35.6599 31.3414C35.6427 28.6768 35.6311 28.3573 35.5389 28.072C35.4813 27.9008 35.366 27.6612 35.2795 27.5357C35.1988 27.4102 35.0259 27.239 34.8991 27.1534C34.7723 27.0621 34.513 26.9537 34.3228 26.9081C34.1326 26.8567 33.8098 26.8168 33.6023 26.8225C33.3948 26.8225 33.0836 26.8567 32.9107 26.8966C32.7378 26.9309 32.4611 27.0393 32.3055 27.1306C32.1441 27.2219 31.902 27.4159 31.7637 27.5585C31.6254 27.7011 31.4352 27.9693 31.3372 28.1576C31.245 28.3459 31.1124 28.6939 31.049 28.9279C30.9395 29.3273 30.928 29.5384 30.8934 34.2912H30.0288V26.1891H30.4035C30.6859 26.1891 30.7839 26.212 30.8069 26.2747C30.8242 26.3261 30.8357 26.4972 30.8357 26.6627C30.8357 26.8282 30.853 27.0792 30.9107 27.4729L31.0893 27.2219C31.1873 27.0849 31.3833 26.8738 31.5274 26.754C31.6715 26.6342 31.9308 26.4573 32.1037 26.366C32.2767 26.2747 32.6167 26.1435 32.853 26.0807C33.0893 26.0237 33.4294 25.9666 33.6023 25.9666ZM50.9798 25.9951C51.2968 26.0065 51.7003 26.0579 51.8732 26.1035C52.0461 26.1492 52.3458 26.2633 52.536 26.3546C52.7493 26.4573 53.0029 26.6513 53.1988 26.8567C53.3718 27.0393 53.5793 27.3189 53.6542 27.4729C53.7349 27.6327 53.8271 27.9008 53.8674 28.072C53.9078 28.2489 53.9251 28.4087 53.902 28.4315C53.879 28.4543 53.683 28.4714 53.0605 28.4429L52.9971 28.1861C52.9568 28.0492 52.8876 27.8552 52.8357 27.7582C52.7896 27.6669 52.6455 27.4957 52.5245 27.3759C52.4035 27.2618 52.1614 27.102 51.9885 27.0222C51.8156 26.948 51.4755 26.851 51.2392 26.8225C50.9395 26.7768 50.6686 26.7768 50.3746 26.8168C50.1383 26.851 49.8386 26.9138 49.7118 26.9651C49.585 27.0165 49.3775 27.142 49.2507 27.2447C49.1239 27.3417 48.9625 27.5414 48.8876 27.6783C48.8012 27.8552 48.7608 28.0378 48.7608 28.2603C48.7608 28.4486 48.8012 28.6654 48.853 28.7738C48.9049 28.8765 49.0029 29.0192 49.0663 29.0933C49.1354 29.1675 49.2853 29.2702 49.3948 29.3273C49.5043 29.3843 49.7233 29.4585 49.8847 29.4927C50.0403 29.527 50.6282 29.6183 51.1816 29.6981C51.7349 29.7723 52.317 29.8807 52.4784 29.9435C52.634 30.0005 52.8818 30.1147 53.0259 30.1945C53.17 30.2744 53.4006 30.4684 53.5389 30.6225C53.683 30.7765 53.8617 31.039 53.9424 31.2102C54.0692 31.4783 54.0922 31.6096 54.0922 32.066C54.0922 32.5567 54.0749 32.648 53.9135 32.9789C53.8156 33.1843 53.6599 33.4411 53.5677 33.5495C53.4755 33.6579 53.245 33.8462 53.0548 33.966C52.8646 34.0858 52.5014 34.2513 52.2478 34.3312C51.9251 34.4339 51.5965 34.4852 51.1527 34.5081C50.6801 34.5309 50.3919 34.5138 50.0288 34.4396C49.7579 34.3882 49.3429 34.2513 49.1066 34.1372C48.8127 34.0002 48.5591 33.8177 48.317 33.5837C48.0865 33.3612 47.902 33.1102 47.7867 32.8648C47.6888 32.6651 47.585 32.357 47.5504 32.1801C47.5159 32.009 47.5101 31.8492 47.5331 31.8264C47.5562 31.8035 47.7579 31.7864 48.3746 31.8093L48.4553 32.1231C48.4957 32.2999 48.6167 32.5681 48.7205 32.7165C48.8184 32.8705 48.9971 33.0702 49.1066 33.1558C49.2161 33.2414 49.4121 33.3612 49.5389 33.424C49.6657 33.4867 49.9135 33.5723 50.0865 33.6066C50.2882 33.6522 50.6628 33.6693 51.1239 33.6522C51.6427 33.6351 51.9251 33.5951 52.1326 33.5153C52.2882 33.4582 52.536 33.3156 52.6744 33.2072C52.8127 33.0987 52.9856 32.9048 53.0548 32.7792C53.1239 32.6537 53.2046 32.4483 53.2219 32.3228C53.245 32.1972 53.2334 31.969 53.2046 31.8093C53.17 31.6438 53.0548 31.4156 52.9395 31.2558C52.8012 31.0732 52.6398 30.942 52.4323 30.845C52.2075 30.7423 51.8213 30.6624 50.9222 30.5369C50.2536 30.4399 49.5447 30.3144 49.3372 30.2516C49.1297 30.1831 48.8415 30.0519 48.6916 29.9435C48.5418 29.8408 48.3285 29.6297 48.2133 29.4699C48.1037 29.3159 47.9712 29.0306 47.9193 28.8423C47.8501 28.6026 47.8329 28.3972 47.8617 28.1291C47.8847 27.9123 47.9597 27.6213 48.0576 27.4159C48.1499 27.2276 48.3401 26.9594 48.4841 26.8168C48.6282 26.6798 48.8991 26.4801 49.0836 26.3831C49.268 26.2804 49.5677 26.1606 49.7406 26.115C49.9135 26.0636 50.1326 26.0123 50.2305 26.0008C50.3228 25.9837 50.6628 25.9837 50.9798 25.9951ZM25.879 26.1891H26.8012V34.2912H25.879V26.1891Z" fill="#535862"/>
</g>
<defs>
<clipPath id="clip0_2927_19553">
<rect width="80" height="38" fill="white"/>
</clipPath>
</defs>
</svg>
