<svg xmlns="http://www.w3.org/2000/svg" width="166" height="37" viewBox="0 0 166 37" fill="none">
  <path fill-rule="evenodd" clip-rule="evenodd" d="M9.61059 0.630859H34.772C35.3715 0.630859 35.9256 0.951652 36.2269 1.47335L43.5566 14.2307C43.9357 14.8917 43.8223 15.7277 43.2812 16.2624L23.1035 36.223C22.4489 36.8711 21.399 36.8711 20.7445 36.223L0.595899 16.2883C0.0417971 15.7407 -0.0618945 14.8787 0.346391 14.2145L8.18159 1.43123C8.48618 0.935454 9.02732 0.630859 9.61059 0.630859ZM31.5219 6.32742V9.90802H24.3542V12.3901C29.3865 12.6558 33.1648 13.7446 33.1939 15.0505V17.7724C33.1648 19.0782 29.3898 20.167 24.3542 20.4327V26.5214H19.5941V20.4327C14.5619 20.167 10.7836 19.0782 10.7544 17.7724V15.0505C10.7836 13.7446 14.5586 12.6558 19.5941 12.3901V9.90802H12.4297V6.32742H31.5219ZM21.9758 18.5598C27.3483 18.5598 31.8362 17.6395 32.938 16.4082C32.0047 15.3648 28.6348 14.545 24.3575 14.3181V16.9169C23.5895 16.9558 22.7956 16.9785 21.979 16.9785C21.1625 16.9785 20.3653 16.9558 19.6006 16.9169V14.3181C15.3201 14.545 11.9501 15.3648 11.0201 16.4082C12.1121 17.6363 16.6033 18.5598 21.9758 18.5598Z" fill="#FFE360"/>
  <path d="M53.3779 7.55202L59.1944 6.89746V12.5454H64.2429V17.4578H59.1522V25.0727C59.1522 26.8743 59.9072 27.7751 61.414 27.7751C62.3829 27.7751 63.1897 27.6098 63.8378 27.2826L65.1696 32.195C63.8508 32.7134 62.4509 33.0148 60.9701 33.0958C58.6273 33.206 56.7706 32.6454 55.3967 31.4173C54.0519 30.1633 53.3779 28.0473 53.3779 25.0727V17.4578H49.8232V12.5454H53.3779V7.55202Z" fill="#FFE360"/>
  <path d="M86.0118 24.4608H71.3491C71.5111 25.4977 72.062 26.3564 73.0049 27.0401C73.9479 27.6947 75.1987 28.0219 76.7605 28.0219C78.9964 28.0219 80.7202 27.4905 81.9289 26.4244L85.2017 30.1087C83.2088 32.1016 80.3541 33.0963 76.6374 33.0963C73.0827 33.0963 70.3219 32.1275 68.3583 30.1897C66.4205 28.252 65.4517 25.6306 65.4517 22.3286C65.4517 19.2179 66.4076 16.7066 68.3194 14.7948C70.2312 12.857 72.804 11.8882 76.0347 11.8882C79.5634 11.8882 82.2562 12.9802 84.1129 15.1642C85.9956 17.3514 86.6307 20.4492 86.0118 24.4608ZM71.3491 20.1608H80.8013C80.7462 19.1239 80.2634 18.3333 79.3463 17.7856C78.4293 17.2121 77.3276 16.9269 76.0347 16.9269C74.8779 16.9269 73.8798 17.2121 73.0471 17.7856C72.2111 18.3592 71.644 19.1531 71.3491 20.1608Z" fill="#FFE360"/>
  <path d="M90.8595 7.55202L96.676 6.89746V12.5454H101.724V17.4578H96.6371V25.0727C96.6371 26.8743 97.3921 27.7751 98.8989 27.7751C99.8677 27.7751 100.678 27.6098 101.323 27.2826L102.654 32.195C101.336 32.7134 99.9358 33.0148 98.4549 33.0958C96.1122 33.206 94.2554 32.6454 92.8815 31.4173C91.5368 30.1633 90.8628 28.0473 90.8628 25.0727V17.4578H87.3081V12.5454H90.8628V7.55202H90.8595Z" fill="#FFE360"/>
  <path d="M104.835 3.99121H110.69V14.921C112.119 13.0383 114.138 12.0954 116.75 12.0954C122.054 12.0954 124.705 15.3292 124.705 21.797V32.6457H118.889V21.8391C118.889 20.4458 118.539 19.37 117.839 18.6052C117.165 17.8405 116.251 17.4582 115.091 17.4582C113.827 17.4582 112.761 17.8956 111.899 18.7673C111.063 19.6422 110.645 20.8541 110.645 22.4094V32.6425H104.829V3.99121H104.835Z" fill="#FFE360"/>
  <path d="M147.517 24.4608H132.854C133.017 25.4977 133.567 26.3564 134.51 27.0401C135.453 27.6947 136.704 28.0219 138.266 28.0219C140.502 28.0219 142.222 27.4905 143.434 26.4244L146.707 30.1087C144.714 32.1016 141.859 33.0963 138.143 33.0963C134.588 33.0963 131.827 32.1275 129.864 30.1897C127.926 28.252 126.957 25.6306 126.957 22.3286C126.957 19.2179 127.913 16.7066 129.825 14.7948C131.737 12.857 134.306 11.8882 137.54 11.8882C141.069 11.8882 143.762 12.9802 145.618 15.1642C147.504 17.3514 148.136 20.4492 147.517 24.4608ZM132.854 20.1608H142.307C142.255 19.1239 141.769 18.3333 140.852 17.7856C139.938 17.2121 138.833 16.9269 137.54 16.9269C136.383 16.9269 135.385 17.2121 134.552 17.7856C133.716 18.3592 133.149 19.1531 132.854 20.1608Z" fill="#FFE360"/>
  <path d="M149.928 12.4647H155.339L155.783 14.6746C157.047 12.873 158.826 11.9722 161.114 11.9722C163 11.9722 164.626 12.5878 166 13.8159L163.576 18.4821C162.634 17.7983 161.571 17.4581 160.385 17.4581C159.066 17.4581 157.961 17.8826 157.073 18.7283C156.185 19.5481 155.741 20.679 155.741 22.1275V32.6489H149.925V12.4647H149.928Z" fill="#FFE360"/>
</svg>
